<?xml version="1.0" encoding="UTF-8" standalone="no"?>
<!DOCTYPE svg PUBLIC "-//W3C//DTD SVG 1.1//EN"
"http://www.w3.org/Graphics/SVG/1.1/DTD/svg11.dtd">


<!-- Page 1 -->
<svg x="0" y="0" width="909" height="1286" viewBox="0 0 909 1286" version="1.1" xmlns="http://www.w3.org/2000/svg" xmlns:xlink="http://www.w3.org/1999/xlink"
style="display: block;margin-left: auto;margin-right: auto;">
<defs>

<style type="text/css"><![CDATA[

.g6_1{
fill: #F7945E;
}
.g14_1{
fill: none;
stroke: #000000;
stroke-width: 1;
stroke-linecap: round;
stroke-linejoin: round;
}
.g45_1{
fill: #314E55;
}
.g24_1{
fill: #EDD570;
}
.g8_1{
fill: #665853;
}
.g26_1{
fill: #7C5F53;
}
.g43_1{
fill: #ED8A19;
}
.g10_1{
fill: #FCFCFC;
}
.g20_1{
fill: #A3AAAF;
}
.g47_1{
fill: #73C9C9;
}
.g48_1{
fill: none;
stroke: #000000;
stroke-width: 2;
stroke-linecap: round;
stroke-linejoin: round;
}
.g22_1{
fill: #8EB1C4;
}
.g34_1{
}
.g35_1{
fill: #43B05B;
}
.g15_1{
fill: #565659;
}
.g32_1{
fill: #964229;
}
.g37_1{
fill: #1081E0;
}
.g12_1{
fill: #949494;
}
.g19_1{
fill: #C17C3E;
}
.g39_1{
fill: #51362A;
}
.g30_1{
fill: #D8DCE1;
}
.g3_1{
fill: #3B2519;
}
.g41_1{
fill: #694B74;
}
.g17_1{
fill: #FFDA44;
}
.g28_1{
fill: #5C546A;
}
.g13_1{
fill: none;
stroke: #DEDEDE;
stroke-width: 1;
stroke-linecap: butt;
stroke-linejoin: miter;
}
.g25_1{
fill: #E6E6E6;
}
.g5_1{
fill: #4C2D19;
}
.g44_1{
fill: #FEE599;
}
.g42_1{
fill: #563C60;
}
.g27_1{
fill: #8B8996;
}
.g7_1{
fill: #F6A4B7;
}
.g1_1{
fill: #FDCC9B;
}
.g49_1{
fill: #56B48C;
}
.g9_1{
fill: #F2788F;
}
.g11_1{
fill: #E8E8E8;
}
.g21_1{
fill: #9E5A23;
}
.g46_1{
fill: #EA86A5;
}
.g23_1{
fill: #A3BFD9;
}
.g16_1{
fill: #ACABB1;
}
.g33_1{
fill: #ECF0F1;
}
.g36_1{
fill: #F0CE49;
}
.g31_1{
fill: #D25627;
}
.g29_1{
fill: #B9BBC1;
}
.g38_1{
fill: #432B1F;
}
.g2_1{
fill: #FCBC85;
}
.g18_1{
fill: #CDCDD0;
}
.g4_1{
fill: #FFFFFF;
}
.g40_1{
fill: #F9AA8D;
}

.s3_1{
font-size: 15.21px;
font-family: CIDFont-F1_d;
fill: #000000;
}
.s2_1{
font-size: 21.45px;
font-family: CIDFont-F2_l;
fill: #000000;
}
.s1_1{
font-size: 13.93px;
font-family: CIDFont-F1_d;
fill: #000000;
}

]]></style>

</defs>
<path d="M0,0
L0,1286
L909,1286
L909,0 Z " 
fill="#FFFFFF" stroke="none" />
<path d="M129,426l32,0l0,35l-32,0Z" class="g1_1" />
<path fill-rule="evenodd" d="M130,430.7c0,0,13.2,8.4,31.1,6.4l0,-10.5l-31.1,0l0,4.1Z" class="g2_1" />
<path fill-rule="evenodd" d="M100.5,372.5c0,-9.5,-6.8,-17.2,-15.2,-17.2C76.8,355.3,70,363,70,372.5c0,9.7,6.8,17.4,15.3,17.4c8.4,0,15.2,-7.7,15.2,-17.4Z" class="g2_1" />
<path fill-rule="evenodd" d="M221.1,372.5c0,-9.5,-6.8,-17.2,-15.2,-17.2c-8.3,0,-15.1,7.7,-15.1,17.2c0,9.7,6.8,17.4,15.1,17.4c8.4,0,15.2,-7.7,15.2,-17.4Z" class="g2_1" />
<path fill-rule="evenodd" d="M205.9,339.5c0,-25.5,-18.7,-44,-60.3,-44c-41.6,0,-60.3,18.5,-60.3,44c0,25.5,-4.3,92.6,60.3,92.6c64.7,0,60.3,-67.1,60.3,-92.6Z" class="g1_1" />
<path fill-rule="evenodd" d="M122.8,368.5c0,-4,-2.9,-7.1,-6.6,-7.1c-3.6,0,-6.6,3.1,-6.6,7.1c0,3.9,3,7.2,6.6,7.2c3.7,0,6.6,-3.3,6.6,-7.2Z" class="g3_1" />
<path fill-rule="evenodd" d="M115.3,365.4c0,-1.1,-0.9,-2,-1.8,-2c-1.1,0,-2,0.9,-2,2c0,1.1,0.9,1.8,2,1.8c0.9,0,1.8,-0.7,1.8,-1.8Z" class="g4_1" />
<path fill-rule="evenodd" d="M105.8,350.7c3.1,1.7,8,-5.1,19.4,0.7c2,1.2,3.3,-9.1,-8.8,-9.1c-10.6,0,-12.4,7.5,-10.6,8.4Z" class="g5_1" />
<path fill-rule="evenodd" d="M182.2,368.5c0,-4,-2.9,-7.1,-6.4,-7.1c-3.6,0,-6.6,3.1,-6.6,7.1c0,3.9,3,7.2,6.6,7.2c3.5,0,6.4,-3.3,6.4,-7.2Z" class="g3_1" />
<path fill-rule="evenodd" d="M174.9,365.4c0,-1.1,-0.9,-2,-2,-2c-1.1,0,-1.9,0.9,-1.9,2c0,1.1,0.8,1.8,1.9,1.8c1.1,0,2,-0.7,2,-1.8Z" class="g4_1" />
<path fill-rule="evenodd" d="M185.3,350.7c-3.1,1.7,-8,-5.1,-19.2,0.7c-2.2,1.2,-3.5,-9.1,8.8,-9.1c10.4,0,12.3,7.5,10.4,8.4Z" class="g5_1" />
<path fill-rule="evenodd" d="M145.6,393.6c-6.4,0,-10.3,-4.7,-10.3,-2.5c0,2.3,1.8,6.7,10.3,6.7c8.4,0,10.2,-4.4,10.2,-6.7c0,-2.2,-3.8,2.5,-10.2,2.5Z" class="g2_1" />
<path fill-rule="evenodd" d="M145.6,415.1c-2.2,0,-3.5,-1.7,-3.5,-0.9c0,0.9,0.5,2.3,3.5,2.3c2.9,0,3.6,-1.4,3.6,-2.3c0,-0.8,-1.4,0.9,-3.6,0.9Z" class="g2_1" />
<path fill-rule="evenodd" d="M145.6,409c-10.3,0,-16.4,-4,-16.4,-2.9c0,0.9,3,5.1,16.4,5.1c13.4,0,16.3,-4.2,16.3,-5.1c0,-1.1,-6.1,2.9,-16.3,2.9Z" class="g6_1" />
<path fill-rule="evenodd" d="M145.6,440.5l0,39.3l-75.6,0c0,-16,39.8,-39.3,75.6,-39.3Z" class="g7_1" />
<path fill-rule="evenodd" d="M145.6,440.5l0,39.3l75.5,0c0,-16,-39.8,-39.3,-75.5,-39.3Z" class="g7_1" />
<path fill-rule="evenodd" d="M130,441.8c0,0,4.6,5.7,15.6,5.7c11,0,15.6,-5.7,15.6,-5.7c0,0,-16.2,-5.8,-31.2,0Z" class="g1_1" />
<path fill-rule="evenodd" d="M123.8,479.8L120.5,444c0,0,-6.8,-0.9,-15.1,5l-6.8,30.8l25.2,0Z" class="g8_1" />
<path fill-rule="evenodd" d="M145.6,447.5l0,32.3l-10.7,0l2,-14.9l-6.2,-6.6l14.9,-10.8Z" class="g8_1" />
<path fill-rule="evenodd" d="M167.6,479.8L170.7,444c0,0,6.8,-0.9,15,5l6.8,30.8l-24.9,0Z" class="g8_1" />
<path fill-rule="evenodd" d="M145.6,447.5l0,32.3l10.8,0l-2.2,-14.9l6.2,-6.6L145.6,447.5Z" class="g8_1" />
<path fill-rule="evenodd" d="M161.1,438l-15.5,9.5l16.3,16.3l12.3,-18.9c0,0,-8.1,-7.8,-13.1,-6.9Z" class="g9_1" />
<path fill-rule="evenodd" d="M130,438l15.6,9.5l-16.3,16.3L117,444.9c0,0,8,-7.8,13,-6.9Z" class="g9_1" />
<path fill-rule="evenodd" d="M212.3,295.4c-1.5,-3,-5.7,-3.3,-7.9,-4.6c-2.2,-1.3,-2.2,-6.5,-6.2,-8.7c-4.1,-2.2,-4.6,1.3,-7.4,0.6c-2.9,-0.6,-5.6,-6.2,-9.3,-7.3c-3.7,-1.3,-7.2,1.1,-9.9,0.5c-2.9,-0.5,-4.8,-6.6,-9.7,-6.2c-4.8,0.4,-5,3.6,-6.1,3.5c-0.9,-0.4,-4.2,-8.1,-10.2,-8.1c-6.1,0,-9.4,7.7,-10.3,8.1c-1.1,0.1,-1.1,-3.1,-6.1,-3.5c-4.9,-0.4,-6.7,5.7,-9.5,6.2c-2.9,0.6,-6.2,-1.8,-10.1,-0.5c-3.6,1.1,-6.4,6.7,-9.1,7.3c-3,0.7,-3.5,-2.8,-7.6,-0.6c-4,2.2,-4,7.4,-6.2,8.7c-2.2,1.3,-6.2,1.6,-7.7,4.6c-5.3,10.4,4,83.7,8.3,83.7c4,0,1.6,-37.4,7.8,-51.7c6.3,-14.3,30.1,-1.8,50.5,-1.8c20.3,0,44.3,-12.5,50.6,1.8c6,14.3,3.6,51.7,7.8,51.7c4.1,0,13.4,-73.3,8.3,-83.7Z" class="g5_1" />
<path fill-rule="evenodd" d="M869.6,252.8c0,-3.1,-2.6,-5.7,-5.7,-5.7l-374,0c-3.3,0,-5.9,2.6,-5.9,5.7l0,244.8c0,3.1,2.6,5.6,5.9,5.6l374,0c3.1,0,5.7,-2.5,5.7,-5.6l0,-244.8Z" class="g10_1" />
<image x="478" y="241" width="397" height="267" xlink:href="1/img/1.png" />
<path fill-rule="evenodd" d="M869.6,252.8c0,-3.1,-2.6,-5.7,-5.7,-5.7l-374,0c-3.3,0,-5.9,2.6,-5.9,5.7l0,244.8c0,3.1,2.6,5.6,5.9,5.6l374,0c3.1,0,5.7,-2.5,5.7,-5.6l0,-244.8Z" class="g10_1" />
<path fill-rule="evenodd" d="M489.9,247.1c-3.3,0,-5.9,2.2,-5.9,4.8l0,35.2l385.5,0l0,-35.2c0,-2.6,-2.5,-4.8,-5.6,-4.8l-374,0Z" class="g11_1" />
<path fill-rule="evenodd" d="M504.3,267.1c0,1.7,-1.2,2.9,-2.9,2.9c-1.5,0,-2.9,-1.2,-2.9,-2.9c0,-1.6,1.4,-2.9,2.9,-2.9c1.7,0,2.9,1.3,2.9,2.9Z" class="g12_1" />
<path fill-rule="evenodd" d="M515.9,267.1c0,1.7,-1.3,2.9,-2.9,2.9c-1.7,0,-3,-1.2,-3,-2.9c0,-1.6,1.3,-2.9,3,-2.9c1.6,0,2.9,1.3,2.9,2.9Z" class="g12_1" />
<path fill-rule="evenodd" d="M527.3,267.1c0,1.7,-1.3,2.9,-3,2.9c-1.4,0,-2.9,-1.2,-2.9,-2.9c0,-1.6,1.5,-2.9,2.9,-2.9c1.7,0,3,1.3,3,2.9Z" class="g12_1" />
<path fill-rule="evenodd" d="M540.5,274.3c0,0.7,0.5,1.3,1.4,1.3l292.3,0c0.7,0,1.4,-0.6,1.4,-1.3l0,-14.3c0,-0.8,-0.7,-1.5,-1.4,-1.5l-292.3,0c-0.9,0,-1.4,0.7,-1.4,1.5l0,14.3Z" class="g4_1" />
<path fill-rule="evenodd" d="M554.2,262.9c-2.2,0,-4,1.8,-4,4.2c0,2.2,1.8,4.2,4,4.2c1.7,0,3.1,-1.1,3.9,-2.5l0.2,-0.4c-0.6,0,-1,-0.2,-1.3,-0.4l-0.2,0.2c-0.4,0.9,-1.5,1.7,-2.6,1.7c-1.4,0,-2.7,-1.3,-2.7,-2.8c0,-1.6,1.3,-2.7,2.7,-2.7c1.3,0,2.2,0.7,2.6,1.6l-0.7,0l1.6,1.9l1.6,-1.9l-1,0c-0.6,-1.6,-2.1,-3.1,-4.1,-3.1Z" class="g12_1" />
<path fill-rule="evenodd" d="M846,262l11,0l0,3l-11,0Zm0,3l11,0l0,3l-11,0Zm0,4l11,0l0,2l-11,0Z" class="g12_1" />
<path d="M483.5,288.5l386,0" class="g13_1" />
<path fill-rule="evenodd" d="M615.3,445.1l123.2,0c8.4,0,15.4,-6.9,15.4,-15.4l0,-84.9c0,-8.4,-7,-15.3,-15.4,-15.3l-123.2,0c-8.6,0,-15.4,6.9,-15.4,15.3l0,84.9c0,8.5,6.8,15.4,15.4,15.4Z" class="g4_1" />
<path d="M615.3,445.1l123.2,0c8.4,0,15.4,-6.9,15.4,-15.4l0,-84.9c0,-8.4,-7,-15.3,-15.4,-15.3l-123.2,0c-8.6,0,-15.4,6.9,-15.4,15.3l0,84.9c0,8.5,6.8,15.4,15.4,15.4Z" class="g14_1" />
<path fill-rule="evenodd" d="M651.7,395.4c-0.1,0,-0.5,0,-0.9,-0.1l8.8,21.4l-18.5,7l0,7.1l44.9,0l0,-7.1l-18.7,-7l-9.9,-24c-1.3,1.6,-3.3,2.7,-5.7,2.7Z" class="g15_1" />
<path fill-rule="evenodd" d="M653.6,381.5c-0.6,-0.2,-1.1,-0.4,-1.8,-0.4c-3.9,0,-7,3.3,-7,7.2c0,3.7,2.6,6.6,6,7c0.4,0.1,0.8,0.1,1,0.1c2.3,0,4.4,-1.1,5.6,-2.7c1,-1.3,1.5,-2.8,1.5,-4.4c0,-0.6,0,-1.3,-0.2,-1.8c-0.7,-2.4,-2.5,-4.4,-5.1,-5Z" class="g16_1" />
<path fill-rule="evenodd" d="M680.4,347.4c-3.7,-3.6,-9.8,-3.6,-13.4,0c-3.7,3.7,-3.7,9.7,0,13.4l0.1,0.4l13.4,-13.4l-0.1,-0.4Z" class="g16_1" />
<path fill-rule="evenodd" d="M704.2,371.3l-12.9,13c3.5,3.4,9.4,3.4,12.9,0c3.6,-3.7,3.6,-9.4,0,-13Z" class="g17_1" />
<path fill-rule="evenodd" d="M712.6,363l-15.2,15L685.7,366.1l-10.1,10.1l6.8,16.9l9,-8.8L712.6,363Z" class="g18_1" />
<path fill-rule="evenodd" d="M695.6,356l-9.9,10.1L697.4,378l15.2,-15l-17,-7Z" class="g16_1" />
<path fill-rule="evenodd" d="M685.7,366.1L695.6,356L684,344.3l-3.5,3.5l-16.6,16.7l3.4,3.3l-13.7,13.7c2.6,0.6,4.4,2.6,5.1,5l13.6,-13.6l3.3,3.3l10.1,-10.1Z" class="g15_1" />
<text 
x="573" 
y="272" 
dx="0,0,0.2,-0.1,0,0,-0.1,0.1,0,0,-0.1,0.2,-0.2,0.2,0,0.1" 
class="s1_1"
>BargainBarter.dk</text>

<text 
x="592" 
y="316" 
dx="0,0.1,-0.1,-0.1,0.2,-0.1,-0.1,0.1,-0.1,0.1,-0.1,0.2,-0.1,-0.1,0.1,-0.2,0.1,0" 
class="s2_1"
>Opret bytteannonce</text>

<path fill-rule="evenodd" d="M457.8,543.4c0,-3.3,-2.6,-5.9,-5.9,-5.9l-374,0c-3.1,0,-5.7,2.6,-5.7,5.9l0,244.6c0,3.3,2.6,5.8,5.7,5.8l374,0c3.3,0,5.9,-2.5,5.9,-5.8l0,-244.6Z" class="g10_1" />
<image x="67" y="532" width="396" height="267" xlink:href="1/img/2.png" />
<path fill-rule="evenodd" d="M457.8,543.4c0,-3.3,-2.6,-5.9,-5.9,-5.9l-374,0c-3.1,0,-5.7,2.6,-5.7,5.9l0,244.6c0,3.3,2.6,5.8,5.7,5.8l374,0c3.3,0,5.9,-2.5,5.9,-5.8l0,-244.6Z" class="g10_1" />
<path fill-rule="evenodd" d="M77.9,537.5c-3.1,0,-5.7,2.2,-5.7,5l0,35l385.6,0l0,-35c0,-2.8,-2.6,-5,-5.9,-5l-374,0Z" class="g11_1" />
<path fill-rule="evenodd" d="M92.6,557.5c0,1.7,-1.3,2.9,-2.9,2.9c-1.7,0,-3,-1.2,-3,-2.9c0,-1.6,1.3,-2.9,3,-2.9c1.6,0,2.9,1.3,2.9,2.9Z" class="g12_1" />
<path fill-rule="evenodd" d="M104,557.5c0,1.7,-1.3,2.9,-3,2.9c-1.4,0,-2.9,-1.2,-2.9,-2.9c0,-1.6,1.5,-2.9,2.9,-2.9c1.7,0,3,1.3,3,2.9Z" class="g12_1" />
<path fill-rule="evenodd" d="M115.5,557.5c0,1.7,-1.3,2.9,-2.9,2.9c-1.7,0,-3,-1.2,-3,-2.9c0,-1.6,1.3,-2.9,3,-2.9c1.6,0,2.9,1.3,2.9,2.9Z" class="g12_1" />
<path fill-rule="evenodd" d="M128.5,564.7c0,0.7,0.8,1.4,1.5,1.4l292.2,0c0.9,0,1.5,-0.7,1.5,-1.4l0,-14.2c0,-0.9,-0.6,-1.4,-1.5,-1.4l-292.2,0c-0.7,0,-1.5,0.5,-1.5,1.4l0,14.2Z" class="g4_1" />
<path fill-rule="evenodd" d="M142.4,553.5c-2.3,0,-4.2,1.8,-4.2,4c0,2.4,1.9,4.2,4.2,4.2c1.7,0,3.2,-1.1,3.7,-2.5l0.2,-0.2c-0.5,-0.2,-0.9,-0.4,-1.3,-0.4l0,0.2c-0.5,0.9,-1.5,1.5,-2.6,1.5c-1.6,0,-2.7,-1.1,-2.7,-2.8c0,-1.5,1.1,-2.7,2.7,-2.7c1.1,0,2.3,0.7,2.6,1.8l-0.7,0l1.5,1.8l1.6,-1.8l-1.1,0c-0.4,-1.8,-2,-3.1,-3.9,-3.1Z" class="g12_1" />
<path fill-rule="evenodd" d="M434,553l11,0l0,2l-11,0Zm0,3l11,0l0,2l-11,0Zm0,3l11,0l0,2l-11,0Z" class="g12_1" />
<path d="M72.5,578.5l385,0" class="g13_1" />
<text 
x="161" 
y="562" 
dx="0,0,0.2,-0.1,0,0,-0.1,0.1,-0.2,0.2,-0.1,0.2,-0.2,-0.1,0,0.1" 
class="s1_1"
>BargainBarter.dk</text>

<text 
x="149" 
y="603" 
dx="0,0,-0.1,0.1,0.1,-0.1,0.1,-0.1,-0.1,-0.1,0.1,-0.1,0.1,-0.1,0,-0.1,0.1,-0.1,0.1,-0.1,0.1,-0.1,0.1,-0.1" 
class="s2_1"
>Se bytteannoncer nær dig</text>

<path fill-rule="evenodd" d="M281.6,682.7l76.3,0c5.3,0,9.5,-4.4,9.5,-9.5l0,-52.4c0,-5.4,-4.2,-9.6,-9.5,-9.6l-76.3,0c-5.3,0,-9.5,4.2,-9.5,9.6l0,52.4c0,5.1,4.2,9.5,9.5,9.5Z" class="g4_1" />
<path d="M281.6,682.7l76.3,0c5.3,0,9.5,-4.4,9.5,-9.5l0,-52.4c0,-5.4,-4.2,-9.6,-9.5,-9.6l-76.3,0c-5.3,0,-9.5,4.2,-9.5,9.6l0,52.4c0,5.1,4.2,9.5,9.5,9.5Z" class="g14_1" />
<path fill-rule="evenodd" d="M171.6,765.4l76.3,0c5.3,0,9.5,-4.2,9.5,-9.5l0,-52.4c0,-5.4,-4.2,-9.6,-9.5,-9.6l-76.3,0c-5.1,0,-9.5,4.2,-9.5,9.6l0,52.4c0,5.3,4.4,9.5,9.5,9.5Z" class="g4_1" />
<path d="M171.6,765.4l76.3,0c5.3,0,9.5,-4.2,9.5,-9.5l0,-52.4c0,-5.4,-4.2,-9.6,-9.5,-9.6l-76.3,0c-5.1,0,-9.5,4.2,-9.5,9.6l0,52.4c0,5.3,4.4,9.5,9.5,9.5Z" class="g14_1" />
<path fill-rule="evenodd" d="M281.6,765.4l76.3,0c5.3,0,9.5,-4.2,9.5,-9.5l0,-52.4c0,-5.4,-4.2,-9.6,-9.5,-9.6l-76.3,0c-5.3,0,-9.5,4.2,-9.5,9.6l0,52.4c0,5.3,4.2,9.5,9.5,9.5Z" class="g4_1" />
<path d="M281.6,765.4l76.3,0c5.3,0,9.5,-4.2,9.5,-9.5l0,-52.4c0,-5.4,-4.2,-9.6,-9.5,-9.6l-76.3,0c-5.3,0,-9.5,4.2,-9.5,9.6l0,52.4c0,5.3,4.2,9.5,9.5,9.5Z" class="g14_1" />
<path fill-rule="evenodd" d="M171.6,682.7l76.3,0c5.1,0,9.5,-4.4,9.5,-9.5l0,-52.4c0,-5.4,-4.4,-9.6,-9.5,-9.6l-76.3,0c-5.3,0,-9.5,4.2,-9.5,9.6l0,52.4c0,5.1,4.2,9.5,9.5,9.5Z" class="g4_1" />
<path d="M171.6,682.7l76.3,0c5.1,0,9.5,-4.4,9.5,-9.5l0,-52.4c0,-5.4,-4.4,-9.6,-9.5,-9.6l-76.3,0c-5.3,0,-9.5,4.2,-9.5,9.6l0,52.4c0,5.1,4.2,9.5,9.5,9.5Z" class="g14_1" />
<path fill-rule="evenodd" d="M217.8,633.8l3.9,3.8c0.3,0.4,0.9,0.4,1.2,0c0.4,-0.3,1,-0.3,1.1,-0.2c-1.8,1.9,-28.9,30.1,-33.2,34.3c-0.3,0.4,-0.7,0.6,-1.2,0.6l-1.1,0c-3,0,-5.4,-2.4,-5.4,-5.3l0,-0.4c0,-0.4,0.2,-0.9,0.6,-1.3l33.2,-32.4c0.3,0.3,0.7,0.7,0.9,0.9Z" class="g19_1" />
<path fill-rule="evenodd" d="M205.7,625.9c5.1,-4.4,13.6,-3.8,18.3,0.9l4.2,4.4c0.4,0.4,0.4,0.9,0,1.3c-0.3,0.4,-0.3,0.9,0,1.3l2.6,2.5c0.4,0.4,0.9,0.4,1.3,0c0.4,-0.3,0.9,-0.3,1.3,0l2.2,2.2c0.9,1,0.9,2.4,0,3.3l-3.1,3.2c-1,0.9,-2.4,0.9,-3.3,0L227,642.8c-0.4,-0.4,-0.4,-1,0,-1.3c0.3,-0.4,0.3,-0.9,0,-1.3l-2.6,-2.6c-0.4,-0.3,-0.9,-0.3,-1.3,0c-0.3,0.4,-0.9,0.4,-1.3,0l-4,-3.8c-0.9,-0.9,-3.7,-3.5,-5,-4.1c-2.1,-1.1,-4.7,-1.4,-7.3,-1.1l-0.4,0.2c-0.9,0.2,-1.4,-0.9,-0.9,-1.6c0.6,-0.4,0.9,-0.9,1.5,-1.3Z" class="g20_1" />
<path fill-rule="evenodd" d="M188.6,670.6c-0.3,0,-0.5,-0.1,-0.7,-0.3c-0.4,-0.4,-0.4,-0.9,0,-1.3l11.9,-11.9c0.4,-0.4,0.9,-0.4,1.3,0c0.4,0.3,0.4,0.9,0,1.3l-11.9,11.9c-0.2,0.2,-0.4,0.3,-0.6,0.3Z" class="g21_1" />
<path fill-rule="evenodd" d="M203.3,656c-0.4,0,-0.5,-0.2,-0.7,-0.4c-0.4,-0.4,-0.4,-0.9,0,-1.3l6.4,-6.4c0.4,-0.4,0.9,-0.4,1.3,0c0.4,0.4,0.4,0.9,0,1.3l-6.4,6.4c-0.2,0.2,-0.4,0.4,-0.6,0.4Z" class="g21_1" />
<path fill-rule="evenodd" d="M212.5,646.6c-0.4,0,-0.6,0,-0.7,-0.2c-0.4,-0.3,-0.4,-0.9,0,-1.2l2.7,-2.8c0.4,-0.4,0.9,-0.4,1.3,0c0.3,0.4,0.3,0.9,0,1.3l-2.8,2.7c-0.1,0.2,-0.3,0.2,-0.5,0.2Z" class="g21_1" />
<path fill-rule="evenodd" d="M187.7,667c-0.3,0,-0.5,-0.2,-0.7,-0.4c-0.4,-0.4,-0.4,-0.9,0,-1.3l6.4,-6.4c0.4,-0.4,0.9,-0.4,1.3,0c0.4,0.4,0.4,0.9,0,1.3l-6.4,6.4c-0.2,0.2,-0.4,0.4,-0.6,0.4Z" class="g21_1" />
<path fill-rule="evenodd" d="M196.9,657.8c-0.4,0,-0.5,-0.2,-0.7,-0.4c-0.4,-0.3,-0.4,-0.9,0,-1.2l6.4,-6.5c0.4,-0.3,0.9,-0.3,1.3,0c0.3,0.4,0.3,1,0,1.3l-6.4,6.4c-0.2,0.2,-0.4,0.4,-0.6,0.4Z" class="g21_1" />
<path fill-rule="evenodd" d="M206.1,648.5c-0.4,0,-0.6,0,-0.8,-0.2c-0.3,-0.4,-0.3,-0.9,0,-1.3l8.3,-8.3c0.4,-0.3,0.9,-0.3,1.3,0c0.3,0.4,0.3,0.9,0,1.3l-8.3,8.3c-0.2,0.2,-0.3,0.2,-0.5,0.2Z" class="g21_1" />
<path d="M311,626l16,0l0,2l-16,0Z" class="g22_1" />
<path fill-rule="evenodd" d="M327.6,623.7c0,-0.2,0,-0.4,0.2,-0.4l0.6,-0.5l-17.3,0l0.6,0.5c0.1,0,0.1,0.2,0.1,0.4l0,1.5l15.8,0l0,-1.5Z" class="g23_1" />
<path d="M311,629l16,0l0,2l-16,0Z" class="g23_1" />
<path fill-rule="evenodd" d="M330.2,621.1l0,-0.5c0,-0.4,-0.2,-0.6,-0.4,-0.6l-20.2,0c-0.1,0,-0.3,0.2,-0.3,0.6l0,0.5c0,0.2,0.2,0.4,0.3,0.4l20.2,0c0.2,0,0.4,-0.2,0.4,-0.4Z" class="g24_1" />
<path fill-rule="evenodd" d="M328,673.2l-16.5,0c-0.2,0,-0.4,0,-0.4,0.2c0,0.2,0.2,0.4,0.4,0.4l16.5,0c0.2,0,0.4,-0.2,0.4,-0.4c0,-0.2,-0.2,-0.2,-0.4,-0.2Z" class="g22_1" />
<path fill-rule="evenodd" d="M330.9,642.8c-1.6,0,-2.4,-0.9,-3.1,-1.5c-0.7,-0.7,-1.3,-1.3,-2.4,-1.3c-1.3,0,-1.8,0.6,-2.4,1.3c-0.7,0.6,-1.6,1.5,-3.3,1.5c-1.6,0,-2.5,-0.9,-3.3,-1.5C315.9,640.6,315.3,640,314,640c-1.1,0,-1.6,0.6,-2.3,1.3c-0.8,0.6,-1.5,1.5,-3.2,1.5c-1.6,0,-2.5,-0.9,-3.3,-1.5c-0.5,-0.5,-0.9,-0.9,-1.4,-1.1c-0.4,1.3,-0.8,2.8,-0.8,4.4c1.3,0.2,2.1,0.7,2.6,1.5c0.7,0.5,1.3,1.1,2.6,1.1c1.1,0,1.6,-0.6,2.4,-1.1c0.7,-0.8,1.6,-1.7,3.3,-1.7c1.8,0,2.5,0.9,3.3,1.7c0.7,0.5,1.2,1.1,2.5,1.1c1.3,0,1.9,-0.6,2.6,-1.1c0.7,-0.8,1.5,-1.7,3.3,-1.7c1.6,0,2.6,0.9,3.3,1.7c0.7,0.5,1.3,1.1,2.4,1.1c1.3,0,1.8,-0.6,2.5,-1.1c0.6,-0.8,1.3,-1.3,2.6,-1.5c0,-1.6,-0.4,-3.1,-0.7,-4.4c-0.6,0.2,-0.9,0.6,-1.5,1.1c-0.7,0.6,-1.6,1.5,-3.3,1.5Z" class="g23_1" />
<path fill-rule="evenodd" d="M311.7,671.9l16.1,0c0.6,-0.5,1.7,-2,2.9,-4.2l-22,0c1.3,2.2,2.4,3.7,3,4.2Z" class="g23_1" />
<path fill-rule="evenodd" d="M331.3,648.5c-1.7,0,-2.6,-1,-3.3,-1.7c-0.6,-0.5,-1.3,-1.1,-2.4,-1.1c-1.3,0,-1.8,0.6,-2.6,1.1c-0.7,0.7,-1.6,1.7,-3.3,1.7c-1.6,0,-2.5,-1,-3.3,-1.7c-0.7,-0.5,-1.2,-1.1,-2.5,-1.1c-1.1,0,-1.9,0.6,-2.4,1.1c-0.8,0.7,-1.7,1.7,-3.3,1.7c-1.9,0,-2.6,-1,-3.3,-1.7c-0.6,-0.4,-1.1,-0.9,-2,-1.1c0,0.6,0,1.3,0,1.8c0.2,1,0.2,1.9,0.2,2.6c1.2,0.2,2.2,0.9,2.7,1.5c0.7,0.7,1.5,1.3,2.6,1.3c1.3,0,1.8,-0.6,2.3,-1.3c0.8,-0.6,1.7,-1.5,3.3,-1.5c1.7,0,2.6,0.9,3.4,1.5c0.7,0.7,1.2,1.3,2.3,1.3c1.1,0,1.7,-0.6,2.4,-1.3c0.7,-0.6,1.7,-1.5,3.3,-1.5c1.7,0,2.6,0.9,3.3,1.5c0.6,0.7,1.1,1.3,2.4,1.3c1.1,0,1.8,-0.6,2.6,-1.3c0.5,-0.6,1.4,-1.3,2.7,-1.5c0,-0.7,0,-1.6,0.2,-2.6c0,-0.5,0,-1.2,0,-1.8c-0.9,0.2,-1.5,0.7,-2,1.1c-0.8,0.7,-1.5,1.7,-3.3,1.7Z" class="g22_1" />
<path fill-rule="evenodd" d="M332.6,634.5c-2.1,-1.8,-4.2,-2.2,-4.4,-2.2l-16.9,0c-0.2,0,-2.4,0.4,-4.4,2.2c-1.1,1.1,-2.2,2.6,-2.7,4.4c0.9,0.4,1.4,0.9,2,1.5c0.7,0.5,1.1,1.1,2.4,1.1c1,0,1.6,-0.6,2.3,-1.1c0.8,-0.8,1.5,-1.7,3.1,-1.7c1.7,0,2.6,0.9,3.3,1.7c0.8,0.5,1.3,1.1,2.4,1.1c1.1,0,1.7,-0.6,2.4,-1.1c0.7,-0.8,1.7,-1.7,3.3,-1.7c1.7,0,2.4,0.9,3.1,1.7c0.8,0.5,1.3,1.1,2.4,1.1c1.3,0,1.7,-0.6,2.4,-1.1c0.5,-0.6,1.1,-1.1,2,-1.5c-0.5,-1.8,-1.6,-3.3,-2.7,-4.4Z" class="g25_1" />
<path fill-rule="evenodd" d="M331.1,654.1c-1.6,0,-2.6,-0.9,-3.3,-1.6c-0.7,-0.6,-1.3,-1.1,-2.4,-1.1c-1.1,0,-1.6,0.5,-2.4,1.1c-0.7,0.7,-1.6,1.6,-3.3,1.6c-1.6,0,-2.5,-0.9,-3.3,-1.6c-0.7,-0.6,-1.2,-1.1,-2.4,-1.1c-1.1,0,-1.6,0.5,-2.3,1.1c-0.8,0.7,-1.7,1.6,-3.3,1.6c-1.7,0,-2.6,-0.9,-3.3,-1.6c-0.6,-0.4,-1.1,-0.9,-1.9,-1.1c0.8,5.1,2.2,9.5,3.9,12.8l25.3,0c1.6,-3.1,3.1,-7.5,3.8,-12.8c-0.7,0.2,-1.2,0.7,-1.8,1.1c-0.7,0.7,-1.6,1.6,-3.3,1.6Z" class="g25_1" />
<path fill-rule="evenodd" d="M308.2,666.4l23.1,0c0.2,-0.2,0.4,-0.5,0.5,-0.9l-24.2,0c0.2,0.4,0.4,0.7,0.6,0.9Z" class="g22_1" />
<path fill-rule="evenodd" d="M333.3,633.6c-1.8,-1.6,-3.7,-2.2,-4.6,-2.4l0,-7.1l1.3,-1.3c0.9,-0.2,1.5,-0.7,1.5,-1.7l0,-0.5c0,-0.9,-0.8,-1.7,-1.7,-1.7l-20.2,0c-0.9,0,-1.6,0.8,-1.6,1.7l0,0.5c0,1,0.5,1.5,1.5,1.7l1.3,1.3l0,7.1c-1,0.2,-2.8,0.8,-4.6,2.4c-2.2,1.8,-4.8,6,-4.4,13.9c0.1,7.9,2.7,14.3,4.7,18.4c1.5,3.3,3.1,5.5,3.9,6.4c-0.4,0.3,-0.6,0.7,-0.6,1.1c0,0.9,0.8,1.6,1.7,1.6l16.5,0c0.9,0,1.6,-0.7,1.6,-1.6c0,-0.4,-0.2,-0.8,-0.5,-1.1c0.7,-0.9,2.4,-3.1,3.8,-6.4c2.1,-4.1,4.6,-10.5,4.8,-18.4c0.4,-7.9,-2.2,-12.1,-4.4,-13.9ZM309.6,621.5c-0.1,0,-0.3,-0.2,-0.3,-0.4l0,-0.5c0,-0.4,0.2,-0.6,0.3,-0.6l20.2,0c0.2,0,0.4,0.2,0.4,0.6l0,0.5c0,0.2,-0.2,0.4,-0.4,0.4l-20.2,0Zm2.2,6.6l0,-1.7l15.8,0l0,1.7l-15.8,0Zm15.8,1.1l0,1.8l-15.8,0l0,-1.8l15.8,0Zm-15.8,-4l0,-1.5c0,-0.2,0,-0.4,-0.1,-0.4l-0.6,-0.5l17.3,0l-0.6,0.5c-0.2,0,-0.2,0.2,-0.2,0.4l0,1.5l-15.8,0ZM328,673.8l-16.5,0c-0.2,0,-0.4,-0.2,-0.4,-0.4c0,-0.2,0.2,-0.2,0.4,-0.2l16.5,0c0.2,0,0.4,0,0.4,0.2c0,0.2,-0.2,0.4,-0.4,0.4Zm-0.2,-1.9l-16.1,0c-0.6,-0.5,-1.7,-2,-3,-4.2l22,0c-1.3,2.2,-2.3,3.7,-2.9,4.2Zm3.5,-5.5l-23.1,0c-0.2,-0.2,-0.4,-0.5,-0.6,-0.9l24.2,0c-0.1,0.4,-0.3,0.7,-0.5,0.9Zm1.1,-2.2l-25.3,0c-1.7,-3.3,-3.1,-7.7,-3.9,-12.8c0.8,0.2,1.3,0.7,1.9,1.1c0.7,0.7,1.6,1.6,3.3,1.6c1.6,0,2.5,-0.9,3.3,-1.6c0.7,-0.6,1.2,-1.1,2.3,-1.1c1.2,0,1.7,0.5,2.4,1.1c0.8,0.7,1.7,1.6,3.3,1.6c1.7,0,2.6,-0.9,3.3,-1.6c0.8,-0.6,1.3,-1.1,2.4,-1.1c1.1,0,1.7,0.5,2.4,1.1c0.7,0.7,1.6,1.6,3.3,1.6c1.6,0,2.6,-0.9,3.3,-1.6c0.6,-0.4,1.1,-0.9,1.8,-1.1c-0.7,5.3,-2.2,9.7,-3.8,12.8Zm4.2,-16.7c-0.2,1,-0.2,1.9,-0.2,2.6c-1.3,0.2,-2.2,0.9,-2.7,1.5c-0.8,0.7,-1.5,1.3,-2.6,1.3c-1.3,0,-1.8,-0.6,-2.4,-1.3c-0.7,-0.6,-1.6,-1.5,-3.3,-1.5c-1.6,0,-2.5,0.9,-3.3,1.5c-0.7,0.7,-1.3,1.3,-2.4,1.3c-1.1,0,-1.6,-0.6,-2.3,-1.3c-0.8,-0.6,-1.7,-1.5,-3.4,-1.5c-1.6,0,-2.5,0.9,-3.2,1.5c-0.6,0.7,-1.2,1.3,-2.4,1.3c-1.1,0,-1.9,-0.6,-2.6,-1.3c-0.6,-0.6,-1.5,-1.3,-2.7,-1.5c0,-0.7,0,-1.6,-0.2,-2.6c0,-0.5,0,-1.2,0,-1.8c0.9,0.2,1.4,0.7,2,1.1c0.7,0.7,1.4,1.7,3.3,1.7c1.6,0,2.6,-1,3.3,-1.7c0.5,-0.5,1.3,-1.1,2.4,-1.1c1.3,0,1.8,0.6,2.5,1.1c0.8,0.7,1.7,1.7,3.3,1.7c1.7,0,2.6,-1,3.3,-1.7c0.8,-0.5,1.3,-1.1,2.6,-1.1c1.1,0,1.8,0.6,2.4,1.1c0.7,0.7,1.6,1.7,3.3,1.7c1.8,0,2.5,-1,3.3,-1.7c0.5,-0.4,1.1,-0.9,2,-1.1c0,0.6,0,1.3,0,1.8Zm-0.2,-2.9c-1.3,0.2,-2,0.7,-2.6,1.5c-0.7,0.5,-1.2,1.1,-2.5,1.1c-1.1,0,-1.7,-0.6,-2.4,-1.1c-0.7,-0.8,-1.6,-1.7,-3.3,-1.7c-1.8,0,-2.6,0.9,-3.3,1.7c-0.7,0.5,-1.3,1.1,-2.6,1.1c-1.2,0,-1.8,-0.6,-2.5,-1.1c-0.8,-0.8,-1.5,-1.7,-3.3,-1.7c-1.7,0,-2.6,0.9,-3.3,1.7c-0.8,0.5,-1.3,1.1,-2.4,1.1c-1.3,0,-1.9,-0.6,-2.6,-1.1c-0.5,-0.8,-1.3,-1.3,-2.5,-1.5c0,-1.7,0.3,-3.1,0.7,-4.4c0.5,0.2,0.9,0.6,1.4,1.1c0.8,0.5,1.7,1.5,3.3,1.5c1.7,0,2.4,-1,3.2,-1.5c0.7,-0.7,1.2,-1.3,2.3,-1.3c1.3,0,1.9,0.6,2.4,1.3c0.8,0.5,1.7,1.5,3.3,1.5c1.7,0,2.6,-1,3.3,-1.5c0.6,-0.7,1.1,-1.3,2.4,-1.3c1.1,0,1.7,0.6,2.4,1.3c0.7,0.5,1.5,1.5,3.1,1.5c1.7,0,2.6,-1,3.3,-1.5c0.6,-0.5,0.9,-0.9,1.5,-1.1c0.3,1.3,0.7,2.7,0.7,4.4Zm-3.1,-4.2c-0.7,0.5,-1.1,1.1,-2.4,1.1c-1.1,0,-1.6,-0.6,-2.4,-1.1c-0.7,-0.8,-1.4,-1.7,-3.1,-1.7c-1.6,0,-2.5,0.9,-3.3,1.7c-0.7,0.5,-1.3,1.1,-2.4,1.1c-1.1,0,-1.6,-0.6,-2.3,-1.1c-0.8,-0.8,-1.7,-1.7,-3.4,-1.7c-1.6,0,-2.3,0.9,-3.1,1.7c-0.7,0.5,-1.3,1.1,-2.4,1.1c-1.2,0,-1.6,-0.6,-2.3,-1.1c-0.6,-0.6,-1.1,-1.1,-2,-1.5c0.5,-1.8,1.6,-3.3,2.7,-4.4c2,-1.8,4.2,-2.2,4.4,-2.2l16.9,0c0.2,0,2.4,0.4,4.4,2.2c1.1,1.1,2.2,2.6,2.7,4.4c-0.9,0.4,-1.5,0.9,-2,1.5Z" class="g26_1" />
<path fill-rule="evenodd" d="M225.3,723.8l-3.5,0c-0.7,0,-1.6,0.2,-2.4,0.5l0,5.4c0,-1.5,1.1,-2.6,2.4,-2.6l3.5,0c1.3,0,2.4,1.1,2.4,2.6l0,10.1c0,1.2,-1.1,2.3,-2.4,2.3l-3.5,0c-1.3,0,-2.4,-1.1,-2.4,-2.3l0,5.1c0.8,0.3,1.7,0.7,2.4,0.7l3.5,0c3.1,0,5.9,-2.7,5.9,-5.8l0,-10.1c0,-3.3,-2.8,-5.9,-5.9,-5.9Z" class="g27_1" />
<path fill-rule="evenodd" d="M216.1,751.3c-0.5,0,-0.9,0.4,-0.9,0.9l-21.6,0c0,-0.5,-0.4,-0.9,-0.9,-0.9c-0.6,0,-0.9,0.4,-0.9,0.9c0,2.4,2,4.2,4.2,4.2l16.7,0c2.3,0,4.2,-1.8,4.2,-4.2c0,-0.5,-0.4,-0.9,-0.8,-0.9Z" class="g28_1" />
<path fill-rule="evenodd" d="M218.5,717.9l-28.4,0c-0.9,0,-1.6,0.8,-1.6,1.7l0,29.3c0,2.2,1.8,4.2,4.2,4.2l23.5,0c2.2,0,4,-2,4,-4.2l0,-29.3c0,-0.9,-0.7,-1.7,-1.7,-1.7Z" class="g29_1" />
<path fill-rule="evenodd" d="M203.5,716.3c-0.4,0,-0.7,-0.4,-0.7,-0.9c0,-1.3,0.5,-1.9,0.9,-2.4c0.4,-0.6,0.7,-0.8,0.7,-1.5c0,-0.5,-0.3,-0.9,-0.7,-1.3c-0.4,-0.5,-0.9,-1.2,-0.9,-2.5c0,-1.3,0.5,-2,0.9,-2.6c0.4,-0.4,0.7,-0.7,0.7,-1.3c0,-0.5,0.4,-0.9,0.8,-0.9c0.5,0,0.9,0.4,0.9,0.9c0,1.3,-0.6,1.9,-1.1,2.4c-0.4,0.6,-0.6,0.7,-0.6,1.5c0,0.7,0.2,0.9,0.6,1.4c0.5,0.6,1.1,1.1,1.1,2.4c0,1.3,-0.6,2,-1.1,2.6c-0.4,0.3,-0.6,0.7,-0.6,1.3c0,0.5,-0.3,0.9,-0.9,0.9Z" class="g30_1" />
<path fill-rule="evenodd" d="M207.7,716.3c-0.4,0,-0.9,-0.4,-0.9,-0.9c0,-1.3,0.7,-1.9,1.1,-2.4c0.4,-0.6,0.7,-0.8,0.7,-1.5c0,-0.5,-0.3,-0.9,-0.7,-1.3c-0.4,-0.5,-1.1,-1.2,-1.1,-2.5c0,-0.6,0.5,-0.9,0.9,-0.9c0.6,0,0.9,0.3,0.9,0.9c0,0.7,0.2,0.9,0.6,1.4c0.5,0.6,1.1,1.1,1.1,2.4c0,1.3,-0.6,2,-1.1,2.6c-0.4,0.3,-0.6,0.7,-0.6,1.3c0,0.5,-0.3,0.9,-0.9,0.9Z" class="g30_1" />
<path fill-rule="evenodd" d="M199.3,716.3c-0.4,0,-0.8,-0.4,-0.8,-0.9c0,-1.3,0.6,-1.9,1.1,-2.4c0.4,-0.6,0.6,-0.8,0.6,-1.5c0,-0.5,-0.2,-0.9,-0.6,-1.3c-0.5,-0.5,-1.1,-1.2,-1.1,-2.5c0,-0.6,0.4,-0.9,0.8,-0.9c0.5,0,0.9,0.3,0.9,0.9c0,0.7,0.2,0.9,0.5,1.4c0.6,0.6,1.1,1.1,1.1,2.4c0,1.3,-0.5,2,-1.1,2.6c-0.3,0.3,-0.5,0.7,-0.5,1.3c0,0.5,-0.4,0.9,-0.9,0.9Z" class="g30_1" />
<path fill-rule="evenodd" d="M204.4,717.9l-14.3,0c-0.9,0,-1.6,0.8,-1.6,1.7l0,29.3c0,2.2,1.8,4.2,4.2,4.2l11.7,0l0,-35.2Z" class="g27_1" />
<path fill-rule="evenodd" d="M296.5,747.4l0,-2.9c0,-21.1,17,-38.1,38.1,-38.1l2.9,0c3.1,0,5.5,2.4,5.5,5.5l0,2.9c0,21.1,-17,38.2,-38.1,38.2l-2.9,0c-3.2,0,-5.5,-2.6,-5.5,-5.6Z" class="g31_1" />
<path fill-rule="evenodd" d="M343,714.8l0,-2.9c0,-1.3,-0.5,-2.4,-1.1,-3.3c-22.9,6.8,-34.1,13.9,-42.3,43.6c0.7,0.4,1.4,0.8,2.3,0.8l3,0C326,753,343,735.9,343,714.8Z" class="g32_1" />
<path fill-rule="evenodd" d="M327.8,718.3l-5.9,-5.9c-0.3,-0.1,-0.7,-0.1,-1.1,0c-0.3,0.4,-0.3,1,0,1.3l5.7,5.7c0.2,0.2,0.6,0.4,0.7,0.4c0.2,0,0.4,-0.2,0.6,-0.4c0.4,-0.2,0.4,-0.7,0,-1.1Z" class="g33_1" />
<path fill-rule="evenodd" d="M301.2,736.4c-0.4,-0.1,-0.7,-0.1,-1.1,0c-0.4,0.4,-0.4,1,0,1.3l5.7,5.7c0.2,0.2,0.6,0.4,0.7,0.4c0.2,0,0.4,-0.2,0.6,-0.4c0.4,-0.2,0.4,-0.7,0,-1.1l-5.9,-5.9Z" class="g33_1" />
<path fill-rule="evenodd" d="M312.9,718.3c-0.3,-0.4,-0.9,-0.4,-1.2,0c-0.4,0.4,-0.4,0.9,0,1.1l5.8,5.9c0.2,0.2,0.4,0.2,0.6,0.2c0.2,0,0.4,0,0.5,-0.2c0.4,-0.4,0.4,-1,0,-1.1l-5.7,-5.9Z" class="g33_1" />
<path fill-rule="evenodd" d="M303.8,731.5c-0.4,-0.2,-0.9,-0.2,-1.3,0c-0.2,0.4,-0.2,0.9,0,1.3l5.9,5.7c0.1,0.2,0.3,0.3,0.5,0.3c0.2,0,0.6,-0.1,0.6,-0.3c0.3,-0.2,0.3,-0.8,0,-1.1l-5.7,-5.9Z" class="g33_1" />
<path fill-rule="evenodd" d="M309.5,722.5c-0.2,-0.4,-0.8,-0.4,-1.1,0c-0.4,0.2,-0.4,0.7,0,1.1l5.8,5.9c0.2,0.2,0.4,0.2,0.6,0.2c0.2,0,0.4,0,0.5,-0.2c0.4,-0.4,0.4,-0.9,0,-1.3l-5.8,-5.7Z" class="g33_1" />
<path fill-rule="evenodd" d="M317,715c-0.4,-0.4,-0.9,-0.4,-1.1,0c-0.4,0.4,-0.4,0.9,0,1.1l5.7,5.9c0.2,0.1,0.3,0.1,0.7,0.1c0.2,0,0.4,0,0.6,-0.1c0.3,-0.4,0.3,-1,0,-1.1L317,715Z" class="g33_1" />
<path fill-rule="evenodd" d="M306.2,726.6c-0.2,-0.4,-0.8,-0.4,-1.1,0c-0.4,0.3,-0.4,0.9,0,1.2l5.8,5.7c0,0.2,0.4,0.4,0.6,0.4c0.2,0,0.4,-0.2,0.5,-0.4c0.4,-0.3,0.4,-0.7,0,-1.1l-5.8,-5.8Z" class="g33_1" />
<path fill-rule="evenodd" d="M259.6,687.9L253.7,682l4.2,-2.4c0.4,-0.2,0.6,-0.5,0.4,-0.9c0,-0.4,-0.2,-0.7,-0.5,-0.7l-18.4,-7.4c-0.3,-0.1,-0.7,-0.1,-1.1,0.2c-0.1,0.2,-0.3,0.8,-0.1,1.1l7.3,18.3c0.2,0.4,0.5,0.6,0.9,0.6c0.4,0,0.7,-0.2,0.9,-0.6l2.4,-4l5.7,5.7c0.2,0.2,0.3,0.4,0.7,0.4c0.2,0,0.6,-0.2,0.7,-0.4l2.8,-2.8c0.4,-0.3,0.4,-0.9,0,-1.2Z" class="g34_1" />
<path fill-rule="evenodd" d="M235.2,666.2c-0.5,-0.3,-1.1,-0.3,-1.5,0c-0.3,0.4,-0.3,1,0,1.3l2.2,2.2c0.2,0.2,0.4,0.2,0.8,0.2c0.2,0,0.3,0,0.5,-0.2c0.4,-0.3,0.4,-1.1,0,-1.4l-2,-2.1Z" class="g34_1" />
<path fill-rule="evenodd" d="M235.9,672.8c0,-0.5,-0.5,-0.9,-1.1,-0.9l-2.9,0c-0.5,0,-1.1,0.4,-1.1,0.9c0,0.6,0.6,1,1.1,1l2.9,0c0.6,0,1.1,-0.4,1.1,-1Z" class="g34_1" />
<path fill-rule="evenodd" d="M235.4,676l-2,2c-0.4,0.3,-0.4,1.1,0,1.4c0.2,0.2,0.4,0.2,0.5,0.2c0.4,0,0.6,0,0.8,-0.2l2.2,-2.2c0.3,-0.3,0.3,-0.9,0,-1.2c-0.4,-0.6,-1.1,-0.6,-1.5,0Z" class="g34_1" />
<path fill-rule="evenodd" d="M240.5,668.3c0.6,0,0.9,-0.4,0.9,-1l0,-3.1c0,-0.5,-0.3,-0.9,-0.9,-0.9c-0.5,0,-1.1,0.4,-1.1,0.9l0,3.1c0,0.6,0.6,1,1.1,1Z" class="g34_1" />
<path fill-rule="evenodd" d="M244.2,669.5c0.2,0,0.4,-0.2,0.5,-0.3l2.3,-2.1c0.3,-0.3,0.3,-1.1,0,-1.4c-0.4,-0.4,-1,-0.4,-1.3,0l-2.2,2.2c-0.4,0.3,-0.4,0.9,0,1.3c0.1,0.1,0.3,0.3,0.7,0.3Z" class="g34_1" />
<path fill-rule="evenodd" d="M871.6,575.1c0,-3.1,-2.6,-5.7,-5.7,-5.7l-374,0c-3.3,0,-5.9,2.6,-5.9,5.7l0,244.8c0,3.1,2.6,5.8,5.9,5.8l374,0c3.1,0,5.7,-2.7,5.7,-5.8l0,-244.8Z" class="g10_1" />
<image x="480" y="564" width="397" height="267" xlink:href="1/img/3.png" />
<path fill-rule="evenodd" d="M871.6,575.1c0,-3.1,-2.6,-5.7,-5.7,-5.7l-374,0c-3.3,0,-5.9,2.6,-5.9,5.7l0,244.8c0,3.1,2.6,5.8,5.9,5.8l374,0c3.1,0,5.7,-2.7,5.7,-5.8l0,-244.8Z" class="g10_1" />
<path fill-rule="evenodd" d="M491.9,569.4c-3.3,0,-5.9,2.2,-5.9,5l0,35l385.6,0l0,-35c0,-2.8,-2.6,-5,-5.7,-5l-374,0Z" class="g11_1" />
<path fill-rule="evenodd" d="M506.4,589.4c0,1.7,-1.3,3,-3,3c-1.6,0,-2.9,-1.3,-2.9,-3c0,-1.6,1.3,-2.9,2.9,-2.9c1.7,0,3,1.3,3,2.9Z" class="g12_1" />
<path fill-rule="evenodd" d="M517.9,589.4c0,1.7,-1.3,3,-2.9,3c-1.7,0,-2.9,-1.3,-2.9,-3c0,-1.6,1.2,-2.9,2.9,-2.9c1.6,0,2.9,1.3,2.9,2.9Z" class="g12_1" />
<path fill-rule="evenodd" d="M529.3,589.4c0,1.7,-1.3,3,-3,3c-1.6,0,-2.9,-1.3,-2.9,-3c0,-1.6,1.3,-2.9,2.9,-2.9c1.7,0,3,1.3,3,2.9Z" class="g12_1" />
<path fill-rule="evenodd" d="M542.5,596.6c0,0.7,0.5,1.3,1.5,1.3l292.2,0c0.7,0,1.3,-0.6,1.3,-1.3l0,-14.3c0,-0.8,-0.6,-1.5,-1.3,-1.5l-292.2,0c-1,0,-1.5,0.7,-1.5,1.5l0,14.3Z" class="g4_1" />
<path fill-rule="evenodd" d="M556.2,585.2c-2.2,0,-4,1.8,-4,4.2c0,2.2,1.8,4.2,4,4.2c1.7,0,3.2,-1.1,3.9,-2.5l0,-0.4c-0.4,0,-0.7,-0.2,-1.3,-0.4l0,0.2c-0.4,0.9,-1.5,1.7,-2.6,1.7c-1.4,0,-2.7,-1.3,-2.7,-2.8c0,-1.6,1.3,-2.7,2.7,-2.7c1.3,0,2.2,0.7,2.6,1.6l-0.7,0l1.4,1.9l1.9,-1.9l-1.1,0c-0.6,-1.6,-2,-3.1,-4.1,-3.1Z" class="g12_1" />
<path fill-rule="evenodd" d="M848,585l11,0l0,2l-11,0Zm0,3l11,0l0,2l-11,0Zm0,3l11,0l0,2l-11,0Z" class="g12_1" />
<path d="M486.5,610.5l385,0" class="g13_1" />
<text 
x="575" 
y="594" 
dx="0,0,0.2,-0.1,0,0,-0.1,0.1,-0.2,0.2,-0.1,0.2,-0.2,0.2,0,-0.1" 
class="s1_1"
>BargainBarter.dk</text>

<text 
x="594" 
y="635" 
dx="0,0.1,-0.1,0.1,-0.2,-0.1,0,0.2,-0.1,-0.1,0,-0.1,-0.1,0.2,-0.1" 
class="s2_1"
>Annonce: Hammer</text>

<path fill-rule="evenodd" d="M505.1,748.6l91.1,0c6.4,0,11.4,-5,11.4,-11.4l0,-81.4c0,-6.4,-5,-11.4,-11.4,-11.4l-91.1,0c-6.3,0,-11.4,5,-11.4,11.4l0,81.4c0,6.4,5.1,11.4,11.4,11.4Z" class="g4_1" />
<path d="M505.1,748.6l91.1,0c6.4,0,11.4,-5,11.4,-11.4l0,-81.4c0,-6.4,-5,-11.4,-11.4,-11.4l-91.1,0c-6.3,0,-11.4,5,-11.4,11.4l0,81.4c0,6.4,5.1,11.4,11.4,11.4Z" class="g14_1" />
<path fill-rule="evenodd" d="M561.7,678l5.4,5.3c0.5,0.4,1.2,0.4,1.8,0c0.4,-0.4,1.1,-0.6,1.5,-0.4c-2.6,2.8,-40,41.4,-45.9,47.5c-0.4,0.6,-1.1,0.7,-1.6,0.7l-1.7,0c-4,0,-7.3,-3.3,-7.3,-7.3l0,-0.5c0,-0.6,0.2,-1.3,0.7,-1.7l46,-44.9c0.4,0.5,1,0.9,1.1,1.3Z" class="g19_1" />
<path fill-rule="evenodd" d="M545.1,667c7.1,-5.9,18.5,-5.2,25.1,1.4l5.8,5.9c0.6,0.6,0.6,1.3,0,1.8c-0.5,0.6,-0.5,1.3,0,1.9l3.5,3.5c0.6,0.5,1.3,0.5,1.9,0c0.5,-0.6,1.2,-0.6,1.8,0l3.1,3.1c1.3,1.2,1.3,3.3,0,4.4l-4.4,4.5c-1.3,1.3,-3.3,1.3,-4.4,0l-3.3,-3.3c-0.4,-0.3,-0.4,-1.2,0,-1.6c0.6,-0.6,0.6,-1.3,0,-1.8l-3.5,-3.5c-0.5,-0.6,-1.3,-0.6,-1.8,0c-0.4,0.4,-1.3,0.4,-1.7,0L561.9,678c-1.3,-1.3,-5.3,-5,-6.9,-5.7c-3.2,-1.5,-6.6,-2,-10.3,-1.3l-0.4,0c-1.3,0.4,-2,-1.1,-1.3,-2c0.8,-0.8,1.3,-1.3,2.1,-2Z" class="g20_1" />
<path fill-rule="evenodd" d="M521.4,728.8c-0.4,0,-0.5,-0.2,-0.9,-0.4c-0.6,-0.6,-0.6,-1.3,0,-1.8L537,710.1c0.5,-0.4,1.3,-0.4,1.8,0c0.6,0.5,0.6,1.2,0,1.8l-16.5,16.5c-0.4,0.2,-0.5,0.4,-0.9,0.4Z" class="g21_1" />
<path fill-rule="evenodd" d="M541.7,708.4c-0.3,0,-0.7,0,-0.9,-0.4c-0.5,-0.5,-0.5,-1.2,0,-1.6l8.8,-9c0.6,-0.6,1.3,-0.6,1.9,0c0.5,0.6,0.5,1.3,0,1.8l-8.8,8.8c-0.4,0.4,-0.6,0.4,-1,0.4Z" class="g21_1" />
<path fill-rule="evenodd" d="M554.4,695.8c-0.4,0,-0.7,-0.2,-0.9,-0.4c-0.6,-0.6,-0.6,-1.3,0,-1.8l3.8,-3.7c0.4,-0.6,1.3,-0.6,1.7,0c0.5,0.4,0.5,1.3,0,1.6l-3.7,3.9c-0.4,0.2,-0.5,0.4,-0.9,0.4Z" class="g21_1" />
<path fill-rule="evenodd" d="M520.1,723.6c-0.3,0,-0.5,0,-0.9,-0.3c-0.4,-0.6,-0.4,-1.3,0,-1.7l9,-9c0.3,-0.5,1.3,-0.5,1.6,0c0.6,0.6,0.6,1.3,0,1.9l-8.8,8.8c-0.1,0.3,-0.5,0.3,-0.9,0.3Z" class="g21_1" />
<path fill-rule="evenodd" d="M532.8,711c-0.4,0,-0.6,-0.2,-1,-0.4c-0.3,-0.6,-0.3,-1.3,0,-1.8l9,-8.8c0.6,-0.6,1.3,-0.6,1.9,0c0.3,0.5,0.3,1.3,0,1.8l-9,8.8c-0.2,0.2,-0.6,0.4,-0.9,0.4Z" class="g21_1" />
<path fill-rule="evenodd" d="M545.4,698.3c-0.3,0,-0.5,-0.2,-0.7,-0.3c-0.6,-0.6,-0.6,-1.3,0,-1.9L556,684.8c0.6,-0.6,1.3,-0.6,1.7,0c0.5,0.5,0.5,1.2,0,1.8L546.3,698c-0.1,0.1,-0.5,0.3,-0.9,0.3Z" class="g21_1" />
<path fill-rule="evenodd" d="M630.1,748.2l91.1,0c6.5,0,11.4,-5.1,11.4,-11.4l0,-81.4c0,-6.4,-4.9,-11.3,-11.4,-11.3l-91.1,0c-6.2,0,-11.3,4.9,-11.3,11.3l0,81.4c0,6.3,5.1,11.4,11.3,11.4Z" class="g4_1" />
<path d="M630.1,748.2l91.1,0c6.5,0,11.4,-5.1,11.4,-11.4l0,-81.4c0,-6.4,-4.9,-11.3,-11.4,-11.3l-91.1,0c-6.2,0,-11.3,4.9,-11.3,11.3l0,81.4c0,6.3,5.1,11.4,11.3,11.4Z" class="g14_1" />
<path d="M631,652l88,0l0,87l-88,0Z" class="g35_1" />
<path fill-rule="evenodd" d="M719.6,717.2l0,-21.1L702.5,679.6l17.1,-17l0,-10.3l-10.3,0l-44.9,44.9l0,-44.9l-13,0l0,19.4l-19.5,0l0,13.1l19.5,0l0,25.4l-2.6,2.4l-16.9,17.1l0,10.2l10.3,0l49.9,-49.8l27.5,27.1Z" class="g36_1" />
<path fill-rule="evenodd" d="M687.7,682.4c-5,-5,-12.8,-5,-17.8,0c-4.4,4.4,-5,12.8,-1.1,17.8l10.1,14.6L689,700.2c3.6,-5,3.3,-13.4,-1.3,-17.8Zm-8.8,13c-2.2,0,-4,-2,-4,-4.2c0,-2.4,1.8,-4.2,4,-4.2c2.4,0,4.2,1.8,4.2,4.2c0,2.2,-1.8,4.2,-4.2,4.2Z" class="g37_1" />
<path fill-rule="evenodd" d="M778.3,685.1c2.2,6.1,-1.1,17.1,-1.1,17.1l19.4,0l0,-34l-21.5,4.1c0,0,1.3,7.5,3.2,12.8Z" class="g38_1" />
<path fill-rule="evenodd" d="M814.9,685.1c-2.2,6.1,1.3,17.1,1.3,17.1l-19.6,0l0,-34l21.4,4.1c0,0,-1.1,7.5,-3.1,12.8Z" class="g38_1" />
<path d="M792,688l9,0l0,10l-9,0Z" class="g1_1" />
<path fill-rule="evenodd" d="M792,689.3c0,0,3.8,2.4,9.2,1.9l0,-3.2l-9.2,0l0,1.3Z" class="g2_1" />
<path fill-rule="evenodd" d="M783.4,672.3c0,-2.8,-2,-5,-4.4,-5c-2.4,0,-4.4,2.2,-4.4,5c0,2.9,2,5.1,4.4,5.1c2.4,0,4.4,-2.2,4.4,-5.1Z" class="g2_1" />
<path fill-rule="evenodd" d="M818.6,672.3c0,-2.8,-2,-5,-4.4,-5c-2.4,0,-4.4,2.2,-4.4,5c0,2.9,2,5.1,4.4,5.1c2.4,0,4.4,-2.2,4.4,-5.1Z" class="g2_1" />
<path fill-rule="evenodd" d="M814.2,662.8c0,-7.6,-5.5,-12.9,-17.6,-12.9c-12.1,0,-17.6,5.3,-17.6,12.9c0,7.3,-1.3,26.9,17.6,26.9c18.9,0,17.6,-19.6,17.6,-26.9Z" class="g1_1" />
<path fill-rule="evenodd" d="M790,671.2c0,-1.1,-0.9,-2.2,-2,-2.2c-0.9,0,-1.9,1.1,-1.9,2.2c0,1.1,1,2,1.9,2c1.1,0,2,-0.9,2,-2Z" class="g3_1" />
<path fill-rule="evenodd" d="M787.8,670.3c0,-0.4,-0.2,-0.6,-0.6,-0.6c-0.3,0,-0.5,0.2,-0.5,0.6c0,0.3,0.2,0.5,0.5,0.5c0.4,0,0.6,-0.2,0.6,-0.5Z" class="g4_1" />
<path fill-rule="evenodd" d="M785,666.6c0.9,0.4,2.4,-1.1,5.7,0.2c0.6,0.2,0.9,-2,-2.6,-2c-3.1,0,-3.6,1.6,-3.1,1.8Z" class="g39_1" />
<path fill-rule="evenodd" d="M807.2,671.2c0,-1.1,-0.7,-2.2,-1.8,-2.2c-1.1,0,-1.9,1.1,-1.9,2.2c0,1.1,0.8,2,1.9,2c1.1,0,1.8,-0.9,1.8,-2Z" class="g3_1" />
<path fill-rule="evenodd" d="M805.2,670.3c0,-0.4,-0.4,-0.6,-0.7,-0.6c-0.2,0,-0.6,0.2,-0.6,0.6c0,0.3,0.4,0.5,0.6,0.5c0.3,0,0.7,-0.2,0.7,-0.5Z" class="g4_1" />
<path fill-rule="evenodd" d="M808.1,666.6c-0.9,0.4,-2.2,-1.1,-5.5,0.2c-0.7,0.2,-1.1,-2,2.6,-2c2.9,0,3.5,1.6,2.9,1.8Z" class="g39_1" />
<path fill-rule="evenodd" d="M796.6,678.5c-1.8,0,-2.9,-1.4,-2.9,-0.7c0,0.7,0.5,2,2.9,2c2.6,0,2.9,-1.3,2.9,-2c0,-0.7,-1.1,0.7,-2.9,0.7Z" class="g2_1" />
<path fill-rule="evenodd" d="M796.6,684.7c-0.6,0,-1.1,-0.5,-1.1,-0.1c0,0.1,0.2,0.5,1.1,0.5c0.9,0,1.1,-0.4,1.1,-0.5c0,-0.4,-0.4,0.1,-1.1,0.1Z" class="g2_1" />
<path fill-rule="evenodd" d="M796.6,682.9c-2.9,0,-4.8,-1.1,-4.8,-0.9c0,0.4,0.9,1.7,4.8,1.7c3.8,0,4.8,-1.3,4.8,-1.7c0,-0.2,-1.9,0.9,-4.8,0.9Z" class="g6_1" />
<path fill-rule="evenodd" d="M788.2,677.8c0,-1.5,-1.1,-2.6,-2.6,-2.6c-1.5,0,-2.6,1.1,-2.6,2.6c0,1.5,1.1,2.6,2.6,2.6c1.5,0,2.6,-1.1,2.6,-2.6Z" class="g40_1" />
<path fill-rule="evenodd" d="M810.5,677.8c0,-1.5,-1.1,-2.6,-2.5,-2.6c-1.5,0,-2.6,1.1,-2.6,2.6c0,1.5,1.1,2.6,2.6,2.6c1.4,0,2.5,-1.1,2.5,-2.6Z" class="g40_1" />
<path fill-rule="evenodd" d="M796.6,692.1l0,11.5l-19.8,0c0,-4.5,9.3,-11.5,19.8,-11.5Z" class="g41_1" />
<path fill-rule="evenodd" d="M796.6,692.1l0,11.5l19.8,0c0,-4.5,-9.4,-11.5,-19.8,-11.5Z" class="g41_1" />
<path fill-rule="evenodd" d="M796.6,692.1c-2.2,0,-4.6,0.3,-6.8,0.9c0,0,2.4,3.1,6.8,3.1c3.8,0,6.6,-2.6,7,-3.1c-2.4,-0.6,-4.8,-0.9,-7,-0.9Z" class="g42_1" />
<path fill-rule="evenodd" d="M792,692.6c0,0,1.5,1.7,4.6,1.7c3.3,0,4.6,-1.7,4.6,-1.7c0,0,-4.8,-1.8,-9.2,0Z" class="g1_1" />
<path fill-rule="evenodd" d="M812.5,647c-11.3,-13.6,-33.2,-8.1,-37.9,10.6c-4.8,18.7,3.6,27.5,3.6,27.5c-3.3,-11,4.4,-22.3,11,-22.5c6.5,-0.2,16.7,-3.9,16.7,-3.9c0,0,1.9,8.8,7.4,12.1c4.2,2.4,2.7,9.6,1.6,14.3c4,-1.4,16.1,-32.4,-2.4,-38.1Z" class="g39_1" />
<path fill-rule="evenodd" d="M830.1,734.4l-70.4,0c-0.9,0,-1.6,-0.1,-1.6,-0.5c0,-0.4,0.7,-0.6,1.6,-0.6l70.4,0c0.9,0,1.7,0.2,1.7,0.6c0,0.4,-0.8,0.5,-1.7,0.5Z" class="g34_1" />
<path fill-rule="evenodd" d="M830.1,726.6l-70.4,0c-0.9,0,-1.6,-0.2,-1.6,-0.6c0,-0.4,0.7,-0.5,1.6,-0.5l70.4,0c0.9,0,1.7,0.1,1.7,0.5c0,0.4,-0.8,0.6,-1.7,0.6Z" class="g34_1" />
<path fill-rule="evenodd" d="M830.1,718.7l-70.4,0c-0.9,0,-1.6,-0.2,-1.6,-0.6c0,-0.3,0.7,-0.5,1.6,-0.5l70.4,0c0.9,0,1.7,0.2,1.7,0.5c0,0.4,-0.8,0.6,-1.7,0.6Z" class="g34_1" />
<path fill-rule="evenodd" d="M830.1,710.8l-70.4,0c-0.9,0,-1.6,-0.2,-1.6,-0.6c0,-0.3,0.7,-0.5,1.6,-0.5l70.4,0c0.9,0,1.7,0.2,1.7,0.5c0,0.4,-0.8,0.6,-1.7,0.6Z" class="g34_1" />
<path fill-rule="evenodd" d="M754.4,740.7l2,4.2c0.2,0.4,0.6,0.5,0.8,0.5l4.7,0.8c1,0.2,1.1,1.1,0.6,1.8l-3.3,3.3c-0.4,0.2,-0.4,0.6,-0.4,0.9l0.8,4.6c0.1,0.9,-0.8,1.5,-1.5,1.1l-4.2,-2.2c-0.2,-0.2,-0.6,-0.2,-0.9,0l-4.3,2.2c-0.7,0.4,-1.6,-0.2,-1.4,-1.1l0.7,-4.6c0.2,-0.3,0,-0.7,-0.2,-0.9L744.3,748c-0.5,-0.7,-0.1,-1.6,0.6,-1.8l4.8,-0.8c0.3,0,0.5,-0.1,0.7,-0.5l2.2,-4.2c0.4,-0.8,1.5,-0.8,1.8,0Z" class="g43_1" />
<path fill-rule="evenodd" d="M776.4,740.7l2,4.2c0.2,0.4,0.4,0.5,0.8,0.5l4.7,0.8c0.9,0.2,1.1,1.1,0.6,1.8l-3.5,3.3c-0.2,0.2,-0.2,0.6,-0.2,0.9l0.7,4.6c0.2,0.9,-0.7,1.5,-1.4,1.1l-4.2,-2.2c-0.2,-0.2,-0.6,-0.2,-1,0l-4.2,2.2c-0.7,0.4,-1.6,-0.2,-1.4,-1.1l0.7,-4.6c0.2,-0.3,0,-0.7,-0.2,-0.9L766.3,748c-0.5,-0.7,-0.2,-1.6,0.6,-1.8l4.7,-0.8c0.4,0,0.6,-0.1,0.8,-0.5l2.2,-4.2c0.3,-0.8,1.4,-0.8,1.8,0Z" class="g43_1" />
<path fill-rule="evenodd" d="M797.9,740.7l2.2,4.2c0.1,0.4,0.3,0.5,0.7,0.5l4.8,0.8c0.7,0.2,1.1,1.1,0.5,1.8l-3.5,3.3c-0.2,0.2,-0.3,0.6,-0.2,0.9l0.8,4.6c0.2,0.9,-0.8,1.5,-1.5,1.1l-4.2,-2.2c-0.4,-0.2,-0.7,-0.2,-0.9,0l-4.2,2.2c-0.8,0.4,-1.7,-0.2,-1.5,-1.1l0.7,-4.6c0,-0.3,0,-0.7,-0.3,-0.9L788,748c-0.8,-0.7,-0.4,-1.6,0.5,-1.8l4.8,-0.8c0.2,0,0.5,-0.1,0.7,-0.5l2,-4.2c0.4,-0.8,1.5,-0.8,1.9,0Z" class="g43_1" />
<path fill-rule="evenodd" d="M820.4,740.7l2,4.2c0.2,0.4,0.6,0.5,0.8,0.5l4.7,0.8c1,0.2,1.3,1.1,0.6,1.8l-3.3,3.3c-0.4,0.2,-0.4,0.6,-0.4,0.9l0.7,4.6c0.2,0.9,-0.7,1.5,-1.4,1.1l-4.2,-2.2c-0.2,-0.2,-0.6,-0.2,-1,0l-4.2,2.2c-0.7,0.4,-1.6,-0.2,-1.4,-1.1l0.7,-4.6c0.2,-0.3,0,-0.7,-0.2,-0.9L810.3,748c-0.5,-0.7,-0.1,-1.6,0.6,-1.8l4.8,-0.8c0.3,0,0.5,-0.1,0.7,-0.5l2.2,-4.2c0.3,-0.8,1.5,-0.8,1.8,0Z" class="g43_1" />
<path fill-rule="evenodd" d="M851,748.2c0.4,-0.4,0.6,-0.9,0.4,-1.3c-0.2,-0.5,-0.6,-0.9,-1.1,-1.1l-4.6,-0.5c-0.2,0,-0.3,-0.2,-0.5,-0.4l-2,-4.2c-0.2,-0.6,-0.8,-0.8,-1.3,-0.8c-0.6,0,-0.9,0.2,-1.3,0.8l-2,4.2c0,0.2,-0.2,0.4,-0.4,0.4l-4.8,0.5c-0.5,0.2,-0.9,0.6,-1.1,1.1c-0.2,0.4,0,0.9,0.4,1.3l3.3,3.3c0.2,0.2,0.4,0.4,0.2,0.5l-0.8,4.6c0,0.6,0.2,1.1,0.6,1.5c0.4,0.2,0.9,0.2,1.5,0l4.2,-2.2c0.2,0,0.3,0,0.5,0l4.1,2.2c0.1,0.2,0.5,0.2,0.7,0.2c0.2,0,0.5,0,0.7,-0.2c0.6,-0.4,0.8,-0.9,0.6,-1.5L847.5,752c0,-0.1,0,-0.3,0.2,-0.5l3.3,-3.3Zm-4.2,4l0.7,4.6c0,0.2,0,0.4,-0.1,0.6c-0.2,0.1,-0.6,0.1,-0.8,0l-4,-2.1c-0.2,-0.1,-0.6,-0.1,-0.7,-0.1c-0.2,0,-0.4,0,-0.6,0.1l-4.2,2.1c-0.2,0.1,-0.4,0.1,-0.7,0c-0.2,-0.2,-0.2,-0.4,-0.2,-0.6l0.9,-4.6c0,-0.5,-0.2,-0.9,-0.5,-1.3l-3.4,-3.3c-0.1,-0.1,-0.1,-0.3,-0.1,-0.5c0.1,-0.2,0.3,-0.4,0.5,-0.4l4.6,-0.7c0.6,0,0.9,-0.4,1.1,-0.7l2,-4.3c0.2,-0.1,0.4,-0.3,0.6,-0.3c0.1,0,0.5,0.2,0.5,0.3l2,4.3c0.4,0.3,0.8,0.7,1.1,0.7l4.6,0.7c0.4,0,0.6,0.2,0.6,0.4c0,0.2,0,0.4,-0.2,0.5l-3.3,3.3c-0.4,0.4,-0.6,0.8,-0.4,1.3Z" class="g34_1" />
<path fill-rule="evenodd" d="M626.1,802.8l112.2,0c7.7,0,13.9,-6.2,13.9,-13.9l0,-9.4c0,-7.7,-6.2,-13.9,-13.9,-13.9l-112.2,0c-7.7,0,-14.1,6.2,-14.1,13.9l0,9.4c0,7.7,6.4,13.9,14.1,13.9Z" class="g44_1" />
<path d="M626.1,802.8l112.2,0c7.7,0,13.9,-6.2,13.9,-13.9l0,-9.4c0,-7.7,-6.2,-13.9,-13.9,-13.9l-112.2,0c-7.7,0,-14.1,6.2,-14.1,13.9l0,9.4c0,7.7,6.4,13.9,14.1,13.9Z" class="g14_1" />
<text 
x="620" 
y="788" 
dx="0,0,0.1,0.2,-0.3,0.1,0.1,0.1,0.1,0.1,-0.2,0.2,0.1,0,-0.1,0.1,0.2" 
class="s3_1"
>Anmod byttehandel</text>

<path fill-rule="evenodd" d="M762.5,810.5l-5.9,-5.8l4.2,-2.4c0.4,-0.2,0.6,-0.4,0.4,-0.9c0,-0.4,-0.2,-0.6,-0.5,-0.8l-18.4,-7.3c-0.3,-0.2,-0.7,0,-1.1,0.2c-0.2,0.3,-0.3,0.7,-0.2,1.1l7.4,18.3c0.2,0.4,0.5,0.6,0.9,0.6c0.4,0,0.7,-0.2,0.9,-0.4l2.4,-4.2l5.7,5.8c0.2,0.2,0.3,0.2,0.7,0.2c0.2,0,0.4,0,0.6,-0.2l2.9,-2.9c0.4,-0.4,0.4,-0.9,0,-1.3Z" class="g34_1" />
<path fill-rule="evenodd" d="M737.9,788.9c-0.3,-0.4,-0.9,-0.4,-1.3,0c-0.3,0.3,-0.3,0.9,0,1.3l2.2,2.2c0.2,0.1,0.4,0.3,0.6,0.3c0.4,0,0.5,-0.2,0.7,-0.3c0.4,-0.4,0.4,-1,0,-1.3l-2.2,-2.2Z" class="g34_1" />
<path fill-rule="evenodd" d="M738.7,795.5c0,-0.4,-0.4,-0.9,-1,-0.9l-2.9,0c-0.5,0,-1.1,0.5,-1.1,0.9c0,0.5,0.6,1.1,1.1,1.1l2.9,0c0.6,0,1,-0.6,1,-1.1Z" class="g34_1" />
<path fill-rule="evenodd" d="M738.3,798.6l-2,2.2c-0.4,0.4,-0.4,0.9,0,1.3c0.1,0.2,0.3,0.4,0.5,0.4c0.4,0,0.6,-0.2,0.7,-0.4l2.2,-2.2c0.4,-0.4,0.4,-0.9,0,-1.3c-0.3,-0.4,-1.1,-0.4,-1.4,0Z" class="g34_1" />
<path fill-rule="evenodd" d="M743.4,790.9c0.4,0,0.9,-0.4,0.9,-0.9l0,-3.1c0,-0.4,-0.5,-0.9,-0.9,-0.9c-0.5,0,-1.1,0.5,-1.1,0.9l0,3.1c0,0.5,0.6,0.9,1.1,0.9Z" class="g34_1" />
<path fill-rule="evenodd" d="M747.1,792.2c0.2,0,0.3,0,0.5,-0.2l2.2,-2.2c0.4,-0.4,0.4,-0.9,0,-1.5c-0.3,-0.3,-0.9,-0.3,-1.3,0l-2.2,2.2c-0.3,0.4,-0.3,1.1,0,1.5c0.2,0.2,0.4,0.2,0.8,0.2Z" class="g34_1" />
<path fill-rule="evenodd" d="M455.8,854.9c0,-3.3,-2.8,-5.9,-5.9,-5.9l-374,0c-3.1,0,-5.9,2.6,-5.9,5.9l0,244.7c0,3.2,2.8,5.7,5.9,5.7l374,0c3.3,0,5.9,-2.5,5.9,-5.7l0,-244.7Z" class="g10_1" />
<image x="64" y="843" width="397" height="267" xlink:href="1/img/4.png" />
<path fill-rule="evenodd" d="M455.8,854.9c0,-3.3,-2.8,-5.9,-5.9,-5.9l-374,0c-3.1,0,-5.9,2.6,-5.9,5.9l0,244.7c0,3.2,2.8,5.7,5.9,5.7l374,0c3.3,0,5.9,-2.5,5.9,-5.7l0,-244.7Z" class="g10_1" />
<path fill-rule="evenodd" d="M75.9,849.2c-3.1,0,-5.9,2,-5.9,4.8l0,35l385.8,0l0,-35c0,-2.8,-2.6,-4.8,-5.9,-4.8l-374,0Z" class="g11_1" />
<path fill-rule="evenodd" d="M90.6,869c0,1.7,-1.3,2.9,-3,2.9c-1.6,0,-2.9,-1.2,-2.9,-2.9c0,-1.5,1.3,-2.9,2.9,-2.9c1.7,0,3,1.4,3,2.9Z" class="g12_1" />
<path fill-rule="evenodd" d="M101.9,869c0,1.7,-1.3,2.9,-2.9,2.9c-1.7,0,-2.9,-1.2,-2.9,-2.9c0,-1.5,1.2,-2.9,2.9,-2.9c1.6,0,2.9,1.4,2.9,2.9Z" class="g12_1" />
<path fill-rule="evenodd" d="M113.5,869c0,1.7,-1.5,2.9,-2.9,2.9c-1.7,0,-3,-1.2,-3,-2.9c0,-1.5,1.3,-2.9,3,-2.9c1.4,0,2.9,1.4,2.9,2.9Z" class="g12_1" />
<path fill-rule="evenodd" d="M126.5,876.1c0,1,0.7,1.5,1.5,1.5l292.2,0c0.7,0,1.5,-0.5,1.5,-1.5l0,-14.1c0,-0.9,-0.8,-1.4,-1.5,-1.4l-292.2,0c-0.8,0,-1.5,0.5,-1.5,1.4l0,14.1Z" class="g4_1" />
<path fill-rule="evenodd" d="M140.4,865c-2.4,0,-4.2,1.8,-4.2,4c0,2.4,1.8,4.2,4.2,4.2c1.7,0,3.1,-1.1,3.7,-2.5l0.2,-0.2c-0.6,-0.2,-0.9,-0.2,-1.3,-0.4l-0.2,0.2c-0.4,0.9,-1.3,1.6,-2.4,1.6c-1.6,0,-2.9,-1.2,-2.9,-2.9c0,-1.5,1.3,-2.7,2.9,-2.7c1.1,0,2,0.7,2.4,1.8l-0.7,0l1.6,1.8l1.7,-1.8l-1.1,0c-0.4,-1.8,-2,-3.1,-3.9,-3.1Z" class="g12_1" />
<path fill-rule="evenodd" d="M432,864l11,0l0,2l-11,0Zm0,3l11,0l0,3l-11,0Zm0,4l11,0l0,2l-11,0Z" class="g12_1" />
<path d="M70.5,889.5l385,0" class="g13_1" />
<text 
x="153" 
y="873" 
dx="0,0,0.2,-0.1,0,0,-0.1,0.1,-0.2,0.2,-0.1,0.2,-0.2,0.2,0,-0.1" 
class="s1_1"
>BargainBarter.dk</text>

<path fill-rule="evenodd" d="M220.7,953.9l51.4,0l0,8.2c0,0.6,0.1,1.1,0.7,1.5c0.4,0,0.5,0.2,0.9,0.2c0.2,0,0.6,-0.2,0.7,-0.2L306,946.2c0.3,-0.4,0.7,-0.9,0.7,-1.5c0,-0.5,-0.4,-1.1,-0.7,-1.5L274.4,925.8c-0.5,-0.2,-1.1,-0.2,-1.6,0.2c-0.6,0.2,-0.7,0.7,-0.7,1.3l0,8.2l-51.4,0c-0.9,0,-1.6,0.8,-1.6,1.7l0,15c0,0.9,0.7,1.7,1.6,1.7Z" class="g45_1" />
<path fill-rule="evenodd" d="M222.4,938.9l51.3,0c0.9,0,1.7,-0.8,1.7,-1.7l0,-7l26.2,14.5l-26.2,14.5l0,-7c0,-0.9,-0.8,-1.6,-1.7,-1.6l-51.3,0l0,-11.7Z" class="g46_1" />
<path fill-rule="evenodd" d="M305.1,968.7l-51.4,0l0,-8.2c0,-0.6,-0.2,-1.1,-0.7,-1.5c-0.5,-0.3,-1.1,-0.3,-1.7,0L220,976.4c-0.6,0.2,-0.9,0.8,-0.9,1.5c0,0.6,0.3,1.1,0.9,1.3l31.3,17.4c0.2,0.2,0.6,0.2,0.8,0.2c0.4,0,0.7,0,0.9,-0.2c0.5,-0.4,0.7,-0.9,0.7,-1.5l0,-8.2l51.4,0c0.9,0,1.6,-0.7,1.6,-1.7l0,-14.8c0,-0.9,-0.7,-1.7,-1.6,-1.7Z" class="g45_1" />
<path fill-rule="evenodd" d="M303.4,983.6l-51.3,0c-0.9,0,-1.7,0.7,-1.7,1.6l0,7.2L224.2,977.9l26.2,-14.7l0,7.2c0,0.9,0.8,1.6,1.7,1.6l51.3,0l0,11.6Z" class="g47_1" />
<path fill-rule="evenodd" d="M192.1,1060.2l143.9,0c10,0,18,-8,18,-17.9l0,-1.5c0,-9.9,-8,-18,-18,-18l-143.9,0c-9.9,0,-17.9,8.1,-17.9,18l0,1.5c0,9.9,8,17.9,17.9,17.9Z" class="g44_1" />
<path d="M192.1,1060.2l143.9,0c10,0,18,-8,18,-17.9l0,-1.5c0,-9.9,-8,-18,-18,-18l-143.9,0c-9.9,0,-17.9,8.1,-17.9,18l0,1.5c0,9.9,8,17.9,17.9,17.9Z" class="g14_1" />
<text 
x="199" 
y="1046" 
dx="0,0,0.2,0.1,0,0,0.1,-0.1,-0.1,0.1,0.1,0.1,0.1,-0.1,0.1,0,0.1,-0.1,0.2" 
class="s3_1"
>Bekræft byttehandel</text>

<path fill-rule="evenodd" d="M103,1012.7l82.5,0c5.7,0,10.5,-4.5,10.5,-10.2L196,920c0,-5.7,-4.8,-10.3,-10.5,-10.3l-82.5,0c-5.7,0,-10.2,4.6,-10.2,10.3l0,82.5c0,5.7,4.5,10.2,10.2,10.2Z" class="g4_1" />
<path d="M103,1012.7l82.5,0c5.7,0,10.5,-4.5,10.5,-10.2L196,920c0,-5.7,-4.8,-10.3,-10.5,-10.3l-82.5,0c-5.7,0,-10.2,4.6,-10.2,10.3l0,82.5c0,5.7,4.5,10.2,10.2,10.2Z" class="g14_1" />
<path fill-rule="evenodd" d="M340.3,1012.7l82.5,0c5.7,0,10.2,-4.5,10.2,-10.2L433,920c0,-5.7,-4.5,-10.3,-10.2,-10.3l-82.5,0c-5.7,0,-10.3,4.6,-10.3,10.3l0,82.5c0,5.7,4.6,10.2,10.3,10.2Z" class="g4_1" />
<path d="M340.3,1012.7l82.5,0c5.7,0,10.2,-4.5,10.2,-10.2L433,920c0,-5.7,-4.5,-10.3,-10.2,-10.3l-82.5,0c-5.7,0,-10.3,4.6,-10.3,10.3l0,82.5c0,5.7,4.6,10.2,10.3,10.2Z" class="g14_1" />
<path fill-rule="evenodd" d="M392,944.2l4.9,4.9c0.6,0.6,1.1,0.6,1.7,0c0.3,-0.3,1.1,-0.5,1.4,-0.2c-2.3,2.4,-37.6,39.1,-43,44.6c-0.6,0.5,-1.1,0.7,-1.7,0.7l-1.6,0c-3.9,0,-7,-3.1,-7,-6.9l0,-0.4c0,-0.6,0.4,-1.3,0.7,-1.7l43.5,-42.3c0.3,0.5,0.7,0.9,1.1,1.3Z" class="g19_1" />
<path fill-rule="evenodd" d="M376.2,933.9c6.8,-5.7,17.4,-5,23.7,1.3l5.5,5.5c0.5,0.5,0.5,1.3,0,1.6c-0.4,0.6,-0.4,1.3,0,1.9l3.3,3.3c0.5,0.3,1.2,0.3,1.8,0c0.4,-0.6,1.1,-0.6,1.6,0l3,2.9c1.1,1.3,1.1,3.1,0,4.2l-4.2,4.2c-1.1,1.1,-3.2,1.1,-4.3,0l-2.9,-3.1c-0.5,-0.4,-0.5,-1.1,0,-1.6c0.6,-0.4,0.6,-1.1,0,-1.7l-3.3,-3.3c-0.5,-0.5,-1.3,-0.5,-1.6,0c-0.6,0.6,-1.3,0.6,-1.7,0L392,944.2c-1.1,-1.3,-4.8,-4.6,-6.4,-5.4c-3,-1.4,-6.3,-1.8,-9.8,-1.2l-0.3,0c-1.1,0.3,-1.9,-1,-1.1,-2.1c0.5,-0.5,1.1,-1.1,1.8,-1.6Z" class="g20_1" />
<path fill-rule="evenodd" d="M353.8,992c-0.3,0,-0.5,-0.2,-0.7,-0.3c-0.6,-0.6,-0.6,-1.3,0,-1.7l15.6,-15.6c0.3,-0.5,1.1,-0.5,1.6,0c0.4,0.6,0.4,1.3,0,1.7l-15.6,15.6c-0.1,0.1,-0.5,0.3,-0.9,0.3Z" class="g21_1" />
<path fill-rule="evenodd" d="M373.1,972.9c-0.4,0,-0.7,-0.1,-0.9,-0.3c-0.6,-0.6,-0.6,-1.3,0,-1.7l8.4,-8.4c0.4,-0.6,1.1,-0.6,1.7,0c0.3,0.5,0.3,1.1,0,1.6l-8.5,8.5c-0.2,0.2,-0.3,0.3,-0.7,0.3Z" class="g21_1" />
<path fill-rule="evenodd" d="M385,960.8c-0.4,0,-0.5,0,-0.9,-0.3c-0.4,-0.4,-0.4,-1.1,0,-1.7l3.7,-3.5c0.3,-0.5,1.1,-0.5,1.6,0c0.4,0.4,0.4,1.1,0,1.7l-3.7,3.5c-0.1,0.3,-0.3,0.3,-0.7,0.3Z" class="g21_1" />
<path fill-rule="evenodd" d="M352.7,987.2c-0.3,0,-0.5,-0.1,-0.9,-0.3c-0.3,-0.6,-0.3,-1.3,0,-1.7l8.5,-8.4c0.5,-0.6,1.1,-0.6,1.6,0c0.6,0.5,0.6,1.3,0,1.6l-8.4,8.5c-0.2,0.2,-0.4,0.3,-0.8,0.3Z" class="g21_1" />
<path fill-rule="evenodd" d="M364.6,975.3c-0.3,0,-0.5,-0.1,-0.9,-0.3c-0.3,-0.6,-0.3,-1.3,0,-1.7l8.5,-8.4c0.5,-0.6,1.2,-0.6,1.6,0c0.6,0.5,0.6,1.1,0,1.6l-8.2,8.5c-0.4,0.2,-0.6,0.3,-1,0.3Z" class="g21_1" />
<path fill-rule="evenodd" d="M376.6,963.2c-0.4,0,-0.6,0,-0.8,-0.2c-0.5,-0.5,-0.5,-1.2,0,-1.8l10.7,-10.6c0.5,-0.6,1.3,-0.6,1.6,0c0.6,0.3,0.6,1.1,0,1.6L377.5,963c-0.4,0.2,-0.6,0.2,-0.9,0.2Z" class="g21_1" />
<path fill-rule="evenodd" d="M125.4,967.4c-0.4,0,-0.5,-0.1,-0.7,-0.1l6.6,16.3l-14,5.3l0,5.3l33.9,0l0,-5.3l-14.1,-5.3l-7.5,-18.4c-0.9,1.3,-2.5,2.2,-4.2,2.2Z" class="g15_1" />
<path fill-rule="evenodd" d="M126.7,956.8c-0.4,-0.2,-0.9,-0.2,-1.3,-0.2c-2.9,0,-5.5,2.4,-5.5,5.3c0,2.8,2.2,5,4.8,5.4c0.1,0,0.3,0.1,0.7,0.1c1.6,0,3.3,-0.9,4.2,-2.2c0.7,-0.9,1.1,-2,1.1,-3.3c0,-0.3,0,-0.9,-0.2,-1.2c-0.5,-1.9,-2,-3.3,-3.8,-3.9Z" class="g16_1" />
<path fill-rule="evenodd" d="M147,931c-2.9,-2.8,-7.3,-2.8,-10.2,0c-2.8,2.9,-2.8,7.3,0,10.2l0.3,0.2l10.1,-10.3L147,931Z" class="g16_1" />
<path fill-rule="evenodd" d="M165,949.1l-9.7,9.7c2.7,2.8,7.1,2.8,9.9,0c2.6,-2.5,2.6,-6.9,0,-9.7c0,0,-0.2,0,-0.2,0Z" class="g17_1" />
<path fill-rule="evenodd" d="M171.4,942.7L160,954.2l-8.9,-8.9l-7.7,7.5l5.1,12.8l22.9,-22.9Z" class="g18_1" />
<path fill-rule="evenodd" d="M158.6,937.6l-7.5,7.7l8.9,8.9l11.4,-11.5l-12.8,-5.1Z" class="g16_1" />
<path fill-rule="evenodd" d="M151.1,945.3l7.5,-7.7l-8.8,-8.8l-2.6,2.4L134.6,944l2.5,2.6l-10.4,10.2c1.8,0.6,3.3,2,3.8,3.9l10.3,-10.5l2.6,2.6l7.7,-7.5Z" class="g15_1" />
<path fill-rule="evenodd" d="M361.5,1069.6l-5.7,-5.7l4.1,-2.4c0.3,-0.2,0.5,-0.5,0.5,-0.9c0,-0.4,-0.2,-0.7,-0.5,-0.9l-18.4,-7.4c-0.3,0,-0.9,0,-1.1,0.4c-0.3,0.2,-0.3,0.6,-0.1,0.9l7.3,18.4c0,0.3,0.4,0.7,0.7,0.7c0.4,0,0.8,-0.2,0.9,-0.6l2.4,-4l5.9,5.7c0.2,0.2,0.4,0.4,0.5,0.4c0.4,0,0.6,-0.2,0.8,-0.4l2.7,-2.8c0.4,-0.3,0.4,-1.1,0,-1.4Z" class="g34_1" />
<path fill-rule="evenodd" d="M337.1,1047.9c-0.3,-0.3,-0.9,-0.3,-1.2,0c-0.4,0.4,-0.4,1.1,0,1.5l2,2.2c0.2,0.2,0.5,0.2,0.7,0.2c0.2,0,0.6,0,0.7,-0.2c0.4,-0.6,0.4,-1.1,0,-1.5l-2.2,-2.2Z" class="g34_1" />
<path fill-rule="evenodd" d="M337.9,1054.7c0,-0.5,-0.4,-0.9,-0.9,-0.9l-3.1,0c-0.6,0,-1,0.4,-1,0.9c0,0.6,0.4,0.9,1,0.9l3.1,0c0.5,0,0.9,-0.3,0.9,-0.9Z" class="g34_1" />
<path fill-rule="evenodd" d="M337.5,1057.6l-2.2,2.2c-0.3,0.4,-0.3,1,0,1.3c0.2,0.2,0.6,0.4,0.7,0.4c0.2,0,0.6,-0.2,0.8,-0.4l2,-2c0.4,-0.4,0.4,-1.1,0,-1.5c-0.4,-0.3,-0.9,-0.3,-1.3,0Z" class="g34_1" />
<path fill-rule="evenodd" d="M342.5,1050.1c0.5,0,0.9,-0.5,0.9,-1.1l0,-2.9c0,-0.6,-0.4,-0.9,-0.9,-0.9c-0.6,0,-1,0.3,-1,0.9l0,2.9c0,0.6,0.4,1.1,1,1.1Z" class="g34_1" />
<path fill-rule="evenodd" d="M346.1,1051.4c0.4,0,0.6,-0.2,0.8,-0.4l2.2,-2.2c0.3,-0.3,0.3,-0.9,0,-1.2c-0.4,-0.4,-1.1,-0.4,-1.5,0l-2.2,2.2c-0.4,0.3,-0.4,0.9,0,1.2c0.4,0.2,0.6,0.4,0.7,0.4Z" class="g34_1" />
<path fill-rule="evenodd" d="M691,966.7c4.9,13.8,-2.8,38.9,-2.8,38.9l44.4,0l0,-77.4l-48.8,9.4c0,0,2.8,16.8,7.2,29.1Z" class="g38_1" />
<path fill-rule="evenodd" d="M774.4,966.7c-4.9,13.8,2.7,38.9,2.7,38.9l-44.5,0l0,-77.4l48.8,9.4c0,0,-2.6,16.8,-7,29.1Z" class="g38_1" />
<path d="M722,973l20,0l0,23l-20,0Z" class="g1_1" />
<path fill-rule="evenodd" d="M722.3,976.3c0,0,8.7,5.4,20.6,4.2l0,-7l-20.6,0l0,2.8Z" class="g2_1" />
<path fill-rule="evenodd" d="M702.5,937.6c0,-6.3,-4.4,-11.4,-9.9,-11.4c-5.7,0,-10,5.1,-10,11.4c0,6.4,4.3,11.5,10,11.5c5.5,0,9.9,-5.1,9.9,-11.5Z" class="g2_1" />
<path fill-rule="evenodd" d="M782.6,937.6c0,-6.3,-4.4,-11.4,-9.9,-11.4c-5.6,0,-10,5.1,-10,11.4c0,6.4,4.4,11.5,10,11.5c5.5,0,9.9,-5.1,9.9,-11.5Z" class="g2_1" />
<path fill-rule="evenodd" d="M772.6,915.8c0,-17.1,-12.3,-29.4,-40,-29.4c-27.7,0,-40,12.3,-40,29.4c0,16.8,-2.9,61.4,40,61.4c42.9,0,40,-44.6,40,-61.4Z" class="g1_1" />
<path fill-rule="evenodd" d="M717.4,934.8c0,-2.5,-1.9,-4.7,-4.2,-4.7c-2.4,0,-4.4,2.2,-4.4,4.7c0,2.8,2,4.8,4.4,4.8c2.3,0,4.2,-2,4.2,-4.8Z" class="g3_1" />
<path fill-rule="evenodd" d="M712.6,932.8c0,-0.7,-0.7,-1.3,-1.4,-1.3c-0.6,0,-1.3,0.6,-1.3,1.3c0,0.7,0.7,1.3,1.3,1.3c0.7,0,1.4,-0.6,1.4,-1.3Z" class="g4_1" />
<path fill-rule="evenodd" d="M706.2,924.7c2,0.8,5.3,-2.7,12.8,0.2c1.5,0.6,2.2,-4.6,-5.8,-4.6c-7,0,-8.3,3.9,-7,4.4Z" class="g39_1" />
<path fill-rule="evenodd" d="M757,934.8c0,-2.5,-2,-4.7,-4.4,-4.7c-2.4,0,-4.2,2.2,-4.2,4.7c0,2.8,1.8,4.8,4.2,4.8c2.4,0,4.4,-2,4.4,-4.8Z" class="g3_1" />
<path fill-rule="evenodd" d="M752,932.8c0,-0.7,-0.5,-1.3,-1.3,-1.3c-0.7,0,-1.2,0.6,-1.2,1.3c0,0.7,0.5,1.3,1.2,1.3c0.8,0,1.3,-0.6,1.3,-1.3Z" class="g4_1" />
<path fill-rule="evenodd" d="M759,924.7c-2,0.8,-5.3,-2.7,-12.8,0.2c-1.3,0.6,-2.2,-4.6,5.8,-4.6c7,0,8.3,3.9,7,4.4Z" class="g39_1" />
<path fill-rule="evenodd" d="M732.6,951.5c-4.2,0,-6.8,-3.1,-6.8,-1.6c0,1.6,1.1,4.5,6.8,4.5c5.7,0,6.8,-2.9,6.8,-4.5c0,-1.5,-2.6,1.6,-6.8,1.6Z" class="g2_1" />
<path fill-rule="evenodd" d="M732.6,965.8c-1.5,0,-2.4,-1.1,-2.4,-0.5c0,0.5,0.4,1.4,2.4,1.4c2,0,2.4,-0.9,2.4,-1.4c0,-0.6,-0.9,0.5,-2.4,0.5Z" class="g2_1" />
<path fill-rule="evenodd" d="M732.6,961.8c-6.8,0,-10.8,-2.8,-10.8,-2c0,0.7,1.8,3.4,10.8,3.4c9,0,10.8,-2.7,10.8,-3.4c0,-0.8,-4,2,-10.8,2Z" class="g6_1" />
<path fill-rule="evenodd" d="M713.3,950c0,-3.3,-2.5,-5.8,-5.8,-5.8c-3.1,0,-5.9,2.5,-5.9,5.8c0,3.3,2.8,5.9,5.9,5.9c3.3,0,5.8,-2.6,5.8,-5.9Z" class="g40_1" />
<path fill-rule="evenodd" d="M764.3,950c0,-3.3,-2.7,-5.8,-5.9,-5.8c-3.3,0,-5.8,2.5,-5.8,5.8c0,3.3,2.5,5.9,5.8,5.9c3.2,0,5.9,-2.6,5.9,-5.9Z" class="g40_1" />
<path fill-rule="evenodd" d="M732.6,982.7l0,26l-45.1,0c0,-10.4,21.4,-26,45.1,-26Z" class="g41_1" />
<path fill-rule="evenodd" d="M732.6,982.7l0,26l45.1,0c0,-10.4,-21.4,-26,-45.1,-26Z" class="g41_1" />
<path fill-rule="evenodd" d="M732.4,982.7c-4.9,0,-10.2,0.7,-15.4,2c0.2,0,5.7,7.1,15.4,7.1c9.2,0,15.2,-6,16,-7.1c-5.2,-1.3,-10.7,-2,-16,-2Z" class="g42_1" />
<path fill-rule="evenodd" d="M722.3,983.6c0,0,3,3.8,10.3,3.8c7.3,0,10.3,-3.8,10.3,-3.8c0,0,-10.7,-3.9,-20.6,0Z" class="g1_1" />
<path fill-rule="evenodd" d="M768.9,880c-26,-31,-75.5,-18.5,-86.4,24.2c-11,42.7,8.5,62.5,8.5,62.5c-7.5,-25.1,9.9,-51.1,24.7,-51.5C730.6,915,754,906.6,754,906.6c0,0,4.1,20.1,16.7,27.5c9.7,5.5,6.1,21.8,3.5,32.6c9.4,-3.5,36.9,-74,-5.3,-86.7Z" class="g39_1" />
<path fill-rule="evenodd" d="M754.6,989.1c-0.4,0,-0.7,0,-1.1,-0.2l11,26.8l-23.3,8.8l0,8.8l56.1,0l0,-8.8L774,1015.7L761.6,985.6c-1.7,2.2,-4.1,3.5,-7,3.5Z" class="g15_1" />
<path fill-rule="evenodd" d="M757,971.7c-0.7,-0.2,-1.7,-0.4,-2.4,-0.4c-4.9,0,-8.8,4,-8.8,9c0,4.4,3.3,8.1,7.7,8.6c0.4,0.2,0.7,0.2,1.1,0.2c2.9,0,5.3,-1.3,7,-3.5c1.3,-1.5,1.8,-3.3,1.8,-5.3c0,-0.9,0,-1.7,-0.2,-2.4c-0.9,-2.9,-3.3,-5.3,-6.2,-6.2Z" class="g16_1" />
<path fill-rule="evenodd" d="M790.2,929.3c-4.6,-4.6,-12.1,-4.6,-16.7,0c-4.6,4.6,-4.6,12.1,0,16.7l0.3,0.4l16.7,-16.7l-0.3,-0.4Z" class="g16_1" />
<path fill-rule="evenodd" d="M819.9,959l-16.2,16.2l0.2,0c4.4,4.4,11.6,4.4,16.2,0c4.4,-4.4,4.4,-11.8,0,-16.2c-0.2,0,-0.2,0,-0.2,0Z" class="g17_1" />
<path fill-rule="evenodd" d="M830.3,948.6l-18.9,18.9L796.8,952.6l-12.5,12.5l8.4,21.1l11,-11l26.6,-26.6Z" class="g18_1" />
<path fill-rule="evenodd" d="M809.2,940.1l-12.4,12.5l14.6,14.9l18.9,-18.9l-21.1,-8.5Z" class="g16_1" />
<path fill-rule="evenodd" d="M796.8,952.6l12.4,-12.5L794.6,925.5l-4.1,4.2l-20.9,20.9l4.3,4.2L757,971.7c2.9,0.9,5.3,3.3,6.2,6.2L780.1,961l4.2,4.1l12.5,-12.5Z" class="g15_1" />
<path d="M542,1067l22,0l0,25l-22,0Z" class="g1_1" />
<path fill-rule="evenodd" d="M542.3,1070.9c0,0,9.2,5.8,21.8,4.4l0,-7.4l-21.8,0l0,3Z" class="g2_1" />
<path fill-rule="evenodd" d="M521.4,1030c0,-6.8,-4.8,-12.3,-10.6,-12.3c-5.9,0,-10.7,5.5,-10.7,12.3c0,6.8,4.8,12.1,10.7,12.1c5.8,0,10.6,-5.3,10.6,-12.1Z" class="g2_1" />
<path fill-rule="evenodd" d="M606.5,1030c0,-6.8,-4.8,-12.3,-10.8,-12.3c-5.9,0,-10.7,5.5,-10.7,12.3c0,6.8,4.8,12.1,10.7,12.1c6,0,10.8,-5.3,10.8,-12.1Z" class="g2_1" />
<path fill-rule="evenodd" d="M595.7,1006.7c0,-18,-13.1,-31,-42.4,-31c-29.3,0,-42.5,13,-42.5,31c0,17.9,-3,65.2,42.5,65.2c45.5,0,42.4,-47.3,42.4,-65.2Z" class="g1_1" />
<path fill-rule="evenodd" d="M537.2,1027c0,-2.7,-2.1,-4.9,-4.6,-4.9c-2.6,0,-4.6,2.2,-4.6,4.9c0,2.8,2,5,4.6,5c2.5,0,4.6,-2.2,4.6,-5Z" class="g3_1" />
<path fill-rule="evenodd" d="M532,1024.8c0,-0.7,-0.7,-1.4,-1.4,-1.4c-0.8,0,-1.3,0.7,-1.3,1.4c0,0.8,0.5,1.3,1.3,1.3c0.7,0,1.4,-0.5,1.4,-1.3Z" class="g4_1" />
<path fill-rule="evenodd" d="M525.2,1014.6c2.2,1.1,5.7,-3.7,13.6,0.3c1.5,1,2.4,-6.4,-6.2,-6.4c-7.4,0,-8.6,5.3,-7.4,6.1Z" class="g5_1" />
<path fill-rule="evenodd" d="M579.2,1027c0,-2.7,-2.2,-4.9,-4.6,-4.9c-2.6,0,-4.6,2.2,-4.6,4.9c0,2.8,2,5,4.6,5c2.4,0,4.6,-2.2,4.6,-5Z" class="g3_1" />
<path fill-rule="evenodd" d="M573.8,1024.8c0,-0.7,-0.5,-1.4,-1.3,-1.4c-0.7,0,-1.4,0.7,-1.4,1.4c0,0.8,0.7,1.3,1.4,1.3c0.8,0,1.3,-0.5,1.3,-1.3Z" class="g4_1" />
<path fill-rule="evenodd" d="M581.3,1014.6c-2.2,1.1,-5.6,-3.7,-13.7,0.3c-1.5,1,-2.4,-6.4,6.2,-6.4c7.5,0,8.8,5.3,7.5,6.1Z" class="g5_1" />
<path fill-rule="evenodd" d="M553.3,1044.6c-4.6,0,-7.3,-3.3,-7.3,-1.6c0,1.6,1.3,4.8,7.3,4.8c5.9,0,7.1,-3.2,7.1,-4.8c0,-1.7,-2.5,1.6,-7.1,1.6Z" class="g2_1" />
<path fill-rule="evenodd" d="M553.3,1059.9c-1.6,0,-2.6,-1.3,-2.6,-0.8c0,0.8,0.6,1.7,2.6,1.7c2,0,2.4,-0.9,2.4,-1.7c0,-0.5,-0.9,0.8,-2.4,0.8Z" class="g2_1" />
<path fill-rule="evenodd" d="M553.3,1055.6c-7.1,0,-11.5,-2.9,-11.5,-2.2c0,0.8,2,3.7,11.5,3.7c9.4,0,11.6,-2.9,11.6,-3.7c0,-0.7,-4.5,2.2,-11.6,2.2Z" class="g6_1" />
<path fill-rule="evenodd" d="M553.3,1077.8l0,27.5l-53.2,0c0,-11.2,28.1,-27.5,53.2,-27.5Z" class="g7_1" />
<path fill-rule="evenodd" d="M553.3,1077.8l0,27.5l53.2,0c0,-11.2,-28.1,-27.5,-53.2,-27.5Z" class="g7_1" />
<path fill-rule="evenodd" d="M542.3,1078.7c0,0,3.3,4.1,11,4.1c7.7,0,10.8,-4.1,10.8,-4.1c0,0,-11.2,-4.2,-21.8,0Z" class="g1_1" />
<path fill-rule="evenodd" d="M537.9,1105.3l-2.4,-25.1c0,0,-4.7,-0.7,-10.4,3.5l-5,21.6l17.8,0Z" class="g8_1" />
<path fill-rule="evenodd" d="M553.3,1082.8l0,22.5l-7.5,0l1.5,-10.4l-4.4,-4.6l10.4,-7.5Z" class="g8_1" />
<path fill-rule="evenodd" d="M568.7,1105.3l2.2,-25.1c0,0,4.8,-0.7,10.6,3.5l4.8,21.6l-17.6,0Z" class="g8_1" />
<path fill-rule="evenodd" d="M553.3,1082.8l0,22.5l7.5,0l-1.5,-10.4l4.5,-4.6l-10.5,-7.5Z" class="g8_1" />
<path fill-rule="evenodd" d="M564.1,1076l-10.8,6.8l11.6,11.3l8.4,-13.2c0,0,-5.5,-5.6,-9.2,-4.9Z" class="g9_1" />
<path fill-rule="evenodd" d="M542.3,1076l11,6.8l-11.6,11.3l-8.6,-13.2c0,0,5.7,-5.6,9.2,-4.9Z" class="g9_1" />
<path fill-rule="evenodd" d="M600.2,975.5c-1.1,-2,-4,-2.4,-5.5,-3.1c-1.6,-0.9,-1.6,-4.6,-4.4,-6.2c-2.9,-1.5,-3.3,0.9,-5.3,0.5c-2,-0.5,-3.8,-4.4,-6.4,-5.3c-2.7,-0.9,-5.1,0.9,-7.1,0.4c-1.9,-0.4,-3.3,-4.6,-6.6,-4.2c-3.5,0.1,-3.7,2.5,-4.5,2.3c-0.5,-0.3,-2.9,-5.6,-7.1,-5.6c-4.4,0,-6.6,5.3,-7.3,5.6c-0.8,0.2,-0.8,-2.2,-4.2,-2.3c-3.5,-0.4,-4.8,3.8,-6.8,4.2c-2.1,0.5,-4.4,-1.3,-7,-0.4c-2.6,0.9,-4.6,4.8,-6.6,5.3c-2,0.4,-2.4,-2,-5.1,-0.5c-3,1.6,-3,5.3,-4.4,6.2c-1.7,0.7,-4.6,1.1,-5.5,3.1c-3.7,7.4,2.9,59.1,5.7,59.1c2.9,0,1.2,-26.4,5.6,-36.5c4.4,-9.9,21.3,-1.3,35.6,-1.3c14.3,0,31.2,-8.6,35.6,1.3c4.2,10.1,2.5,36.5,5.5,36.5c2.9,0,9.5,-51.7,5.8,-59.1Z" class="g5_1" />
<path fill-rule="evenodd" d="M629.2,1041.1l6.4,6.5c0.6,0.5,1.5,0.5,2,0c0.6,-0.6,1.5,-0.6,1.9,-0.4c-3,3.3,-48.1,50,-55.2,57.2c-0.6,0.5,-1.3,0.9,-2,0.9l-2.1,0c-4.9,0,-8.9,-4,-8.9,-8.8l0,-0.7c0,-0.8,0.3,-1.5,0.9,-2l55.5,-54.1c0.6,0.7,1.1,1.1,1.5,1.4Z" class="g19_1" />
<path fill-rule="evenodd" d="M609,1027.9c8.7,-7.1,22.4,-6.2,30.3,1.7l7.1,7.1c0.6,0.8,0.6,1.7,0,2.2c-0.7,0.8,-0.7,1.7,0,2.2l4.3,4.3c0.5,0.7,1.4,0.7,2.2,0c0.5,-0.6,1.4,-0.6,2,0l3.8,3.8c1.7,1.5,1.7,4,0,5.3l-5.3,5.3c-1.5,1.7,-4,1.7,-5.3,0l-3.9,-3.6c-0.5,-0.8,-0.5,-1.7,0,-2.2c0.6,-0.6,0.6,-1.5,0,-2.2l-4.2,-4.2c-0.7,-0.6,-1.6,-0.6,-2.2,0c-0.5,0.5,-1.4,0.5,-2.2,0l-6.4,-6.5c-1.5,-1.4,-6.2,-5.8,-8.2,-6.7c-3.9,-1.9,-8.1,-2.4,-12.3,-1.7l-0.6,0.2c-1.4,0.2,-2.4,-1.5,-1.4,-2.6c0.7,-0.9,1.4,-1.6,2.3,-2.4Z" class="g20_1" />
<path fill-rule="evenodd" d="M580.4,1102.4c-0.3,0,-0.7,-0.2,-1.1,-0.4c-0.5,-0.7,-0.5,-1.6,0,-2.2l20,-19.8c0.6,-0.7,1.5,-0.7,2.2,0c0.6,0.6,0.6,1.5,0,2l-20,20c-0.3,0.2,-0.5,0.4,-1.1,0.4Z" class="g21_1" />
<path fill-rule="evenodd" d="M605,1078c-0.5,0,-0.7,-0.2,-1.1,-0.6c-0.5,-0.5,-0.5,-1.4,0,-2l10.6,-10.8c0.8,-0.5,1.7,-0.5,2.2,0c0.6,0.7,0.6,1.7,0,2.2l-10.6,10.6c-0.4,0.4,-0.7,0.6,-1.1,0.6Z" class="g21_1" />
<path fill-rule="evenodd" d="M620.2,1062.6c-0.3,0,-0.7,0,-1.1,-0.4c-0.5,-0.5,-0.5,-1.4,0,-2.2l4.6,-4.5c0.7,-0.6,1.7,-0.6,2.2,0c0.6,0.7,0.6,1.6,0,2.2l-4.6,4.5c-0.3,0.4,-0.5,0.4,-1.1,0.4Z" class="g21_1" />
<path fill-rule="evenodd" d="M579,1096.3c-0.6,0,-0.8,-0.2,-1.1,-0.5c-0.6,-0.6,-0.6,-1.5,0,-2l10.8,-10.9c0.5,-0.5,1.5,-0.5,2,0c0.7,0.8,0.7,1.7,0,2.2l-10.6,10.7c-0.4,0.3,-0.8,0.5,-1.1,0.5Z" class="g21_1" />
<path fill-rule="evenodd" d="M594.2,1081.1c-0.4,0,-0.8,-0.2,-0.9,-0.5c-0.8,-0.6,-0.8,-1.5,0,-2.2l10.6,-10.7c0.5,-0.5,1.5,-0.5,2.2,0c0.5,0.6,0.5,1.5,0,2.2l-10.8,10.7c-0.2,0.3,-0.6,0.5,-1.1,0.5Z" class="g21_1" />
<path fill-rule="evenodd" d="M609.6,1065.7c-0.6,0,-0.8,-0.2,-1.1,-0.4c-0.6,-0.7,-0.6,-1.6,0,-2.1l13.7,-13.8c0.6,-0.5,1.5,-0.5,2.2,0c0.6,0.5,0.6,1.5,0,2.2l-13.7,13.7c-0.4,0.2,-0.8,0.4,-1.1,0.4Z" class="g21_1" />
<path d="M589.8,914.1l148.5,180" class="g48_1" />
<path fill-rule="evenodd" d="M57.4,809.4c-16.5,0,-29.9,13.2,-29.9,29.7c0,16.5,13.4,29.9,29.9,29.9c16.5,0,29.9,-13.4,29.9,-29.9c0,-16.5,-13.4,-29.7,-29.9,-29.7Z" class="g49_1" />
<path fill-rule="evenodd" d="M66,840c-0.4,-1.1,-0.9,-2,-1.7,-2.7c-0.7,-0.8,-1.6,-1.3,-2.5,-1.7c-0.9,-0.5,-2,-0.7,-3.1,-0.7c-1.5,0,-3,0.5,-4.6,1.5L55,830.5l8.4,0c0.8,0,1.5,-0.2,1.9,-0.6c0.5,-0.3,0.7,-0.7,0.7,-1.4c0,-1.3,-0.9,-2,-2.8,-2l-9.3,0c-0.9,0,-1.7,0.1,-2.2,0.7c-0.4,0.4,-0.7,1.1,-0.9,2.2l-1.5,8.4c0,0.8,-0.2,1.1,-0.2,1.1c0,0.6,0.4,1.1,0.8,1.5c0.3,0.4,0.9,0.5,1.4,0.5c0.6,0,1.3,-0.1,2,-0.9c1,-0.5,1.5,-0.9,2.1,-1.3c0.3,-0.1,1.1,-0.3,2,-0.3c0.9,0,1.6,0.2,2.4,0.5c0.5,0.6,1.1,1.1,1.4,1.9c0.4,0.7,0.8,1.8,0.8,2.9c0,1.1,-0.2,2,-0.6,2.7c-0.4,1,-0.9,1.5,-1.6,2.1c-0.8,0.3,-1.5,0.7,-2.4,0.7c-0.9,0,-1.9,-0.4,-2.8,-0.9c-0.7,-0.6,-1.3,-1.5,-1.8,-2.6c-0.6,-1.1,-1.3,-1.6,-2.2,-1.6c-0.6,0,-1.1,0.1,-1.5,0.7c-0.3,0.4,-0.5,0.7,-0.5,1.3c0,0.7,0.3,1.6,0.9,2.5c0.5,1,1.5,1.9,2.7,2.8c1.3,0.7,3,1.1,5.2,1.1c1.8,0,3.5,-0.4,4.9,-1.3c1.5,-0.7,2.6,-1.8,3.3,-3.3c0.8,-1.5,1.1,-2.9,1.1,-4.6C66.7,842,66.5,840.9,66,840Z" class="g4_1" />
<path fill-rule="evenodd" d="M500.3,515.2c-16.5,0,-29.7,13.2,-29.7,29.7c0,16.5,13.2,29.9,29.7,29.9c16.5,0,29.9,-13.4,29.9,-29.9c0,-16.5,-13.4,-29.7,-29.9,-29.7Z" class="g49_1" />
<path fill-rule="evenodd" d="M509.7,548.7c-0.6,-0.2,-1.3,-0.3,-2.2,-0.3l-0.8,0l0,-13.6c0,-2,-0.9,-3.1,-2.7,-3.1c-0.6,0,-1.1,0.1,-1.5,0.5c-0.4,0.4,-0.9,0.9,-1.5,1.9l-9.3,12.4c-0.2,0.4,-0.4,0.6,-0.6,0.9c-0.1,0.2,-0.3,0.4,-0.5,0.8c-0.2,0.2,-0.4,0.3,-0.4,0.5c-0.2,0.4,-0.2,0.6,-0.2,0.8c0,0.9,0.4,1.6,1,2c0.5,0.5,1.2,0.9,2.3,0.9l9,0l0,3.1c0,0.9,0.2,1.6,0.6,2c0.3,0.6,0.9,0.7,1.6,0.7c0.6,0,1.1,-0.1,1.5,-0.7c0.5,-0.4,0.7,-1.1,0.7,-2l0,-3.1l1.1,0c0.8,0,1.5,-0.2,1.9,-0.6c0.5,-0.3,0.7,-0.7,0.7,-1.4c0,-0.9,-0.2,-1.5,-0.7,-1.7Zm-7.4,-0.3l-7.7,0l7.7,-10.3l0,10.3Z" class="g4_1" />
<path fill-rule="evenodd" d="M99.9,206.6C83.4,206.6,70,220,70,236.5c0,16.3,13.4,29.7,29.9,29.7c16.5,0,29.9,-13.4,29.9,-29.7c0,-16.5,-13.4,-29.9,-29.9,-29.9Z" class="g49_1" />
<path fill-rule="evenodd" d="M103.6,224c-0.4,-0.3,-0.9,-0.7,-1.5,-0.7c-0.5,0,-0.9,0.2,-1.1,0.4c-0.2,0.2,-0.7,0.7,-1.3,1.6c-0.7,0.9,-1.4,1.8,-2.3,2.6c-0.8,0.7,-1.9,1.4,-3.3,2c-1,0.6,-1.7,0.9,-2.1,1.1c-0.3,0.4,-0.5,0.7,-0.5,1.5c0,0.3,0.2,0.9,0.5,1.3c0.4,0.3,1,0.5,1.3,0.5c1.1,0,3.1,-1.1,6.1,-3.3l0,16c0,0.9,0.2,1.6,0.7,2.2c0.4,0.3,0.9,0.5,1.7,0.5c1.6,0,2.3,-1.1,2.3,-3.5l0,-20.1c0,-0.8,-0.1,-1.5,-0.5,-2.1Z" class="g4_1" />
<path fill-rule="evenodd" d="M515.9,849C499.4,849,486,862.4,486,878.9c0,16.5,13.4,29.7,29.9,29.7c16.3,0,29.7,-13.2,29.7,-29.7C545.6,862.4,532.2,849,515.9,849Z" class="g49_1" />
<path fill-rule="evenodd" d="M524.7,880.2c-0.5,-1.1,-1.1,-2,-1.6,-2.8c-0.8,-0.7,-1.7,-1.3,-2.6,-1.8c-0.9,-0.4,-2,-0.5,-3.1,-0.5c-1.1,0,-2.2,0.1,-3.1,0.7c-1,0.3,-1.9,1.1,-2.6,2c0.2,-3.1,0.5,-5.3,1.5,-6.6c0.3,-0.5,0.9,-1.1,1.6,-1.5c0.6,-0.3,1.1,-0.5,1.8,-0.5c0.8,0,1.5,0.2,2.1,0.5c0.5,0.6,0.9,1.1,1.2,1.9c0.2,0.5,0.6,0.9,1,1.3c0.3,0.3,0.9,0.3,1.2,0.3c0.6,0,1.1,-0.2,1.5,-0.5c0.4,-0.4,0.6,-0.8,0.6,-1.3c0,-0.7,-0.4,-1.7,-1,-2.6c-0.5,-0.7,-1.4,-1.4,-2.5,-2.2c-1.1,-0.5,-2.4,-0.7,-4.1,-0.7c-1.4,0,-2.9,0.2,-4,0.7c-1.3,0.8,-2.4,1.5,-3.1,2.8c-0.9,1.1,-1.7,2.5,-2,4.2c-0.6,1.8,-0.8,3.8,-0.8,6c0,2.8,0.4,5,1.1,6.8c0.8,2,1.9,3.5,3.3,4.4c1.5,0.9,3.2,1.5,5.2,1.5c1.6,0,3.3,-0.4,4.6,-1.3c1.4,-0.7,2.3,-1.6,3.1,-3.1c0.9,-1.3,1.2,-2.8,1.2,-4.4c0,-1.3,-0.1,-2.4,-0.5,-3.3Zm-5.3,7.1c-0.9,0.9,-1.8,1.5,-2.9,1.5c-1.3,0,-2.4,-0.6,-3.2,-1.7c-0.9,-1.1,-1.2,-2.3,-1.2,-4c0,-0.9,0.1,-1.8,0.5,-2.6c0.6,-0.7,1.1,-1.2,1.7,-1.6c0.7,-0.4,1.4,-0.6,2,-0.6c0.9,0,1.4,0.2,2.2,0.6c0.5,0.5,1.1,1.1,1.4,1.8c0.4,0.8,0.6,1.7,0.6,2.8c0,1.6,-0.4,2.9,-1.1,3.8Z" class="g4_1" />
<path fill-rule="evenodd" d="M55.2,493.5c-16.5,0,-29.9,13.2,-29.9,29.7c0,16.5,13.4,29.9,29.9,29.9c16.5,0,29.7,-13.4,29.7,-29.9c0,-16.5,-13.2,-29.7,-29.7,-29.7Z" class="g49_1" />
<path fill-rule="evenodd" d="M63.8,525.8c-0.4,-0.7,-0.9,-1.5,-1.5,-2c-0.5,-0.7,-1.4,-1.3,-2.3,-1.7c1.1,-0.9,1.8,-1.6,2.2,-2.5c0.5,-0.8,0.9,-1.9,0.9,-3c0,-0.9,-0.2,-1.8,-0.6,-2.5c-0.3,-0.8,-0.9,-1.5,-1.6,-2c-0.8,-0.6,-1.5,-1.1,-2.4,-1.3c-0.9,-0.4,-2,-0.6,-3.1,-0.6c-1.3,0,-2.6,0.2,-3.7,0.6c-0.9,0.3,-1.8,0.9,-2.6,1.4c-0.7,0.6,-1.2,1.3,-1.6,2.1c-0.4,0.5,-0.6,1.2,-0.6,1.8c0,0.7,0.2,1.1,0.6,1.5c0.5,0.5,0.9,0.7,1.3,0.7c0.5,0,0.9,-0.2,1.1,-0.4c0.3,0,0.5,-0.2,0.7,-0.5c0.2,-0.4,0.4,-0.9,0.6,-1.5c0.3,-0.5,0.5,-0.9,0.7,-1.3c0.4,-0.2,0.7,-0.5,1.1,-0.7c0.5,-0.2,1.1,-0.4,1.8,-0.4c1.1,0,1.9,0.4,2.6,1.1c0.5,0.6,0.9,1.5,0.9,2.2c0,1.3,-0.4,2.2,-1.3,2.8c-0.7,0.7,-1.6,1.1,-2.7,1.1l-0.8,0c-0.7,0,-1.4,0,-1.8,0.3c-0.4,0.4,-0.5,1,-0.5,1.5c0,0.6,0.1,0.9,0.3,1.3c0.4,0.4,0.9,0.5,1.7,0.5c0,0,0.3,0,0.9,-0.1c0.5,0,0.9,0,1.1,0c1.3,0,2.4,0.3,3.1,1.1c0.7,0.9,1.1,2,1.1,3.2c0,1,-0.2,1.9,-0.7,2.4c-0.4,0.8,-0.9,1.3,-1.7,1.7c-0.5,0.3,-1.3,0.5,-2,0.5c-1.3,0,-2.2,-0.3,-2.9,-1.3c-0.8,-0.7,-1.5,-1.8,-2,-3.4c0,-0.4,-0.4,-0.6,-0.6,-0.8c-0.4,-0.2,-0.7,-0.3,-0.9,-0.3c-0.7,0,-1.3,0.1,-1.7,0.7c-0.5,0.4,-0.7,0.9,-0.7,1.6c0,0.6,0.2,1.1,0.6,2.1c0.3,0.7,0.9,1.4,1.6,2.2c0.7,0.9,1.7,1.4,2.8,2c1.1,0.5,2.3,0.7,3.8,0.7c1.3,0,2.6,-0.2,3.7,-0.7c1.3,-0.4,2.2,-0.9,2.9,-1.8c0.9,-0.8,1.5,-1.7,2,-2.6c0.4,-1.1,0.6,-2,0.6,-3.1c0,-1,-0.2,-1.9,-0.4,-2.6Z" class="g4_1" />
<path fill-rule="evenodd" d="M478.9,193.6C462.4,193.6,449,207,449,223.5c0,16.5,13.4,29.9,29.9,29.9c16.3,0,29.7,-13.4,29.7,-29.9c0,-16.5,-13.4,-29.9,-29.7,-29.9Z" class="g49_1" />
<path fill-rule="evenodd" d="M487.5,232.8c-0.6,-0.3,-1.3,-0.5,-2.2,-0.5l-9.2,0c0.4,-0.6,0.6,-0.9,0.9,-1.1c0.6,-0.9,1.9,-2,3.7,-3.5c1.7,-1.5,2.9,-2.4,3.7,-3.1c0.7,-0.7,1.4,-1.7,2.2,-2.8c0.7,-1.2,1.1,-2.5,1.1,-4c0,-0.9,-0.2,-1.8,-0.6,-2.7c-0.3,-0.8,-0.7,-1.7,-1.4,-2.2c-0.6,-0.8,-1.3,-1.3,-2.1,-1.7c-1.2,-0.5,-2.9,-0.7,-4.5,-0.7c-1.7,0,-3,0.2,-4.1,0.5c-1.1,0.6,-2,1.1,-2.7,1.9c-0.8,0.7,-1.3,1.4,-1.7,2.3c-0.3,1,-0.5,1.7,-0.5,2.6c0,0.6,0.2,1.1,0.7,1.5c0.4,0.5,0.7,0.7,1.5,0.7c0.5,0,1.1,-0.4,1.4,-0.7c0.4,-0.4,0.6,-0.9,1,-1.9c0.1,-0.7,0.5,-1.2,0.5,-1.4c0.9,-1.3,2.2,-2,3.7,-2c0.7,0,1.4,0.1,2,0.5c0.5,0.4,1.1,0.7,1.5,1.5c0.3,0.5,0.5,1.1,0.5,2c0,0.5,-0.2,1.3,-0.5,2c-0.4,0.7,-0.8,1.5,-1.5,2.2c-0.6,0.6,-1.5,1.3,-2.4,2c-0.5,0.4,-1.5,1.1,-2.7,2.2c-1.1,1.3,-2.6,2.6,-4.3,4.2c-0.3,0.4,-0.7,0.9,-0.9,1.7c-0.3,0.7,-0.5,1.3,-0.5,1.6c0,0.8,0.2,1.3,0.7,1.7c0.6,0.5,1.3,0.7,2,0.7l13,0c0.8,0,1.3,-0.2,1.7,-0.5c0.5,-0.4,0.7,-0.9,0.7,-1.5c0,-0.5,-0.3,-1.1,-0.7,-1.5Z" class="g4_1" />
<path fill-rule="evenodd" d="M284.9,304.9c10.1,16.3,26.8,20.3,40.1,9.9c8.8,16.9,25.5,20.1,37.3,7.3c4,-4.4,7.1,-10.4,8.9,-17.2c11.4,8.4,25.5,2,31.4,-14.5c1.3,-3.3,2,-6.8,2.4,-10.5c11.9,-1.4,20.7,-16.4,19.8,-33.5c-0.4,-5.9,-1.9,-11.5,-4.4,-16.1c4,-12.7,0,-27.5,-8.6,-33.2c-1.3,-0.7,-2.4,-1.3,-3.7,-1.7C405,179.8,393.6,171.1,383,175.6c-3.3,1.3,-6.4,3.9,-8.8,7.4c-6.3,-10.5,-17.3,-11.8,-24.6,-2.8c-1.1,1.7,-2.2,3.3,-3.1,5.3c-10.6,-8.2,-23.8,-5.1,-32.3,7.4c-12.6,-9.6,-28.2,-2.6,-34.8,15.6c-2,5.4,-3.1,11.7,-2.9,17.9c-8.1,0,-14.5,9.4,-14.5,20.9c-0.2,8.1,3.1,15.6,8.2,18.9c-6.8,7.1,-8.4,21.1,-3.5,31c4.3,8.2,11.6,11.4,18.2,7.7Zm-59.6,17.8c0,-1.1,-0.9,-2.2,-2.2,-2.2c-1.1,0,-2.2,1.1,-2.2,2.2c0,1.2,1.1,2.2,2.2,2.2c1.3,0,2.2,-1,2.2,-2.2Zm18.3,-10.3c0,-2.4,-1.8,-4.4,-4.4,-4.4c-2.3,0,-4.2,2,-4.2,4.4c0,2.4,1.9,4.2,4.2,4.2c2.6,0,4.4,-1.8,4.4,-4.2Zm21.3,-12.3c0,-3.5,-2.9,-6.4,-6.6,-6.4c-3.5,0,-6.4,2.9,-6.4,6.4c0,3.7,2.9,6.6,6.4,6.6c3.7,0,6.6,-2.9,6.6,-6.6Z" class="g4_1" />
<path d="M284.9,304.9c10.1,16.3,26.8,20.3,40.1,9.9c8.8,16.9,25.5,20.1,37.3,7.3c4,-4.4,7.1,-10.4,8.9,-17.2c11.4,8.4,25.5,2,31.4,-14.5c1.3,-3.3,2,-6.8,2.4,-10.5c11.9,-1.4,20.7,-16.4,19.8,-33.5c-0.4,-5.9,-1.9,-11.5,-4.4,-16.1c4,-12.7,0,-27.5,-8.6,-33.2c-1.3,-0.7,-2.4,-1.3,-3.7,-1.7C405,179.8,393.6,171.1,383,175.6c-3.3,1.3,-6.4,3.9,-8.8,7.4c-6.3,-10.5,-17.3,-11.8,-24.6,-2.8c-1.1,1.7,-2.2,3.3,-3.1,5.3c-10.6,-8.2,-23.8,-5.1,-32.3,7.4c-12.6,-9.6,-28.2,-2.6,-34.8,15.6c-2,5.4,-3.1,11.7,-2.9,17.9c-8.1,0,-14.5,9.4,-14.5,20.9c-0.2,8.1,3.1,15.6,8.2,18.9c-6.8,7.1,-8.4,21.1,-3.5,31c4.3,8.2,11.6,11.4,18.2,7.7ZM270.2,266.2c2.8,2,5.7,2.6,8.6,1.3m43.9,41.1c0.5,2.2,1.2,4.4,2.3,6.2m46.2,-9.9c0.8,-2.4,1.1,-5,1.1,-7.5M405,279.9c1.1,-9.1,-3,-17.7,-9.2,-19.8m20,-22.5c2,-1.6,3.7,-4.2,4.6,-7.3M318.8,197.8c-1.3,-2,-2.9,-3.6,-4.6,-4.9M225.3,322.7c0,-1.1,-0.9,-2.2,-2.2,-2.2c-1.1,0,-2.2,1.1,-2.2,2.2c0,1.2,1.1,2.2,2.2,2.2c1.3,0,2.2,-1,2.2,-2.2Zm18.3,-10.3c0,-2.4,-1.8,-4.4,-4.4,-4.4c-2.3,0,-4.2,2,-4.2,4.4c0,2.4,1.9,4.2,4.2,4.2c2.6,0,4.4,-1.8,4.4,-4.2Zm21.3,-12.3c0,-3.5,-2.9,-6.4,-6.6,-6.4c-3.5,0,-6.4,2.9,-6.4,6.4c0,3.7,2.9,6.6,6.4,6.6c3.7,0,6.6,-2.9,6.6,-6.6Z" class="g48_1" />
<text 
x="301" 
y="213" 
dx="0,0.2,-0.1,0,0.1,0.1,-0.1,0,0.1,0,0.1,-0.1,0.2,0,0.1" 
class="s3_1"
>Jeg vil af med </text>

<text 
x="311" 
y="231" 
dx="0,0.2,0,-0.2,0.1,0.3,-0.3,0.2,0,0.2" 
class="s3_1"
>min gamle </text>

<text 
x="300" 
y="250" 
dx="0,0,0,0.2,-0.1,0,0.1,-0.1,0.1,0,0.1,0.1,-0.1" 
class="s3_1"
>lampe. Måske </text>

<text 
x="297" 
y="268" 
dx="0,0.1,0,0,-0.1,0.1,0.1,0.1,0,0,0.1,0.1,-0.2,0.1,0.1,-0.1" 
class="s3_1"
>nogen vil bytte </text>

<text 
x="297" 
y="286" 
dx="0,0.1,0,0,-0.1,0.1,0.1,0.1,0,0,-0.1,0.1,0.2,-0.2" 
class="s3_1"
>noget for den?</text>

<path fill-rule="evenodd" d="M248.8,425.9c-0.6,0,-1.1,0,-1.5,0l13.4,32.4L232.5,469l0,10.8l68.2,0l0,-10.8L272.2,458.3l-15,-36.6c-2,2.5,-5.1,4.2,-8.4,4.2Z" class="g15_1" />
<path fill-rule="evenodd" d="M251.5,404.8c-0.9,-0.2,-1.8,-0.4,-2.7,-0.4c-6.1,0,-10.8,4.8,-10.8,10.8c0,5.4,4,9.9,9.3,10.7c0.4,0,0.9,0,1.5,0c3.3,0,6.4,-1.7,8.4,-4.2c1.5,-1.7,2.2,-4.1,2.2,-6.5c0,-1.1,0,-2,-0.4,-2.9c-0.9,-3.7,-3.8,-6.6,-7.5,-7.5Z" class="g16_1" />
<path fill-rule="evenodd" d="M291.9,353.3c-5.5,-5.7,-14.7,-5.7,-20.2,0c-5.7,5.5,-5.7,14.6,0,20.2l0.4,0.5l20.3,-20.4l-0.5,-0.3Z" class="g16_1" />
<path fill-rule="evenodd" d="M328.2,389.4L308.5,409c5.5,5.5,14.3,5.5,19.7,0c5.5,-5.3,5.5,-14.1,0,-19.6Z" class="g17_1" />
<path fill-rule="evenodd" d="M340.8,376.7l-22.9,22.8l-18,-18l-15.2,15.2l10.5,25.7L308.6,409l19.6,-19.6l12.6,-12.7Z" class="g18_1" />
<path fill-rule="evenodd" d="M315.2,366.3l-15.3,15.2l18,18l22.9,-22.8L315.2,366.3Z" class="g16_1" />
<path fill-rule="evenodd" d="M299.9,381.5l15.3,-15.2L297.4,348.7l-5,4.9l-25.5,25.3l5.2,5.2l-20.6,20.7c3.7,0.9,6.6,3.8,7.6,7.5l20.7,-20.5l4.9,4.9l15.2,-15.2Z" class="g15_1" />


<!-- Any embedded fonts defined here -->
<style type="text/css" ><![CDATA[

@font-face {
	font-family: CIDFont-F2_l;
	src: url("fonts/CIDFont-F2_l.woff") format("woff");
}

@font-face {
	font-family: CIDFont-F1_d;
	src: url("fonts/CIDFont-F1_d.woff") format("woff");
}

]]></style>

</svg>
